<svg version="1.1" xmlns="http://www.w3.org/2000/svg" viewBox="0 0 442.5594414985353 254.48437525" width="885.1188829970706" height="508.9687505">
  <!-- svg-source:excalidraw -->

  <defs>
    <style class="style-fonts">
      @font-face {
        font-family: "Virgil";
        src: url("/fonts/Virgil.woff2");
      }
      @font-face {
        font-family: "Cascadia";
        src: url("/fonts/Cascadia.woff2");
      }
      @font-face {
        font-family: "Assistant";
        src: url("/fonts/Assistant-Regular.woff2");
      }
    </style>

  </defs>
  <rect x="0" y="0" width="442.5594414985353" height="254.48437525" fill="#ffffff"></rect><g stroke-linecap="round"><g transform="translate(220.541991875 104.98437525) rotate(0 33.615234375 0)"><path d="M0.71 0.31 C11.95 0.24, 56.9 0.7, 67.83 0.74" stroke="#1e1e1e" stroke-width="2.5" fill="none" stroke-dasharray="8 10"></path></g></g><mask></mask><g transform="translate(17.46638437499996 10) rotate(0 16.059982299804688 12.5)"><text x="0" y="17.52" font-family="Virgil, Segoe UI Emoji" font-size="20px" fill="#1e1e1e" text-anchor="start" style="white-space: pre;" direction="ltr" dominant-baseline="alphabetic">the</text></g><g transform="translate(86.78207987500002 10.000000499999999) rotate(0 17.339988708496094 12.5)"><text x="0" y="17.52" font-family="Virgil, Segoe UI Emoji" font-size="20px" fill="#1e1e1e" text-anchor="start" style="white-space: pre;" direction="ltr" dominant-baseline="alphabetic">cat</text></g><g transform="translate(158.91950691650396 10.019531749999999) rotate(0 18.189987182617216 12.5)"><text x="0" y="17.52" font-family="Virgil, Segoe UI Emoji" font-size="20px" fill="#1e1e1e" text-anchor="start" style="white-space: pre;" direction="ltr" dominant-baseline="alphabetic">was</text></g><g transform="translate(316.95597291650404 10.000000749999998) rotate(0 16.059982299804688 12.5)"><text x="0" y="17.52" font-family="Virgil, Segoe UI Emoji" font-size="20px" fill="#1e1e1e" text-anchor="start" style="white-space: pre;" direction="ltr" dominant-baseline="alphabetic">the</text></g><g transform="translate(378.43950741650406 10.0195315) rotate(0 27.059967041015625 12.5)"><text x="0" y="17.52" font-family="Virgil, Segoe UI Emoji" font-size="20px" fill="#1e1e1e" text-anchor="start" style="white-space: pre;" direction="ltr" dominant-baseline="alphabetic">house</text></g><g stroke-linecap="round" transform="translate(10.24609375 52.6015625) rotate(0 22.775390625 70.1875)"><path d="M11.39 0 C20.17 0.18, 28.28 -1.33, 34.16 0 M11.39 0 C17.2 0.86, 23.27 0.11, 34.16 0 M34.16 0 C40.59 1.5, 45.16 4.62, 45.55 11.39 M34.16 0 C40.05 -2.01, 47.12 4.71, 45.55 11.39 M45.55 11.39 C45.73 44.18, 45.39 74.59, 45.55 128.99 M45.55 11.39 C46.38 42.47, 44.91 72, 45.55 128.99 M45.55 128.99 C47.5 136.83, 41.94 139.64, 34.16 140.38 M45.55 128.99 C44.43 136.37, 39.66 140.85, 34.16 140.38 M34.16 140.38 C27.51 139.41, 25.27 138.53, 11.39 140.38 M34.16 140.38 C27.5 141.54, 19.05 140.62, 11.39 140.38 M11.39 140.38 C4.99 142.16, 0.22 134.92, 0 128.99 M11.39 140.38 C3.66 138.95, 0.37 136.03, 0 128.99 M0 128.99 C-1.19 92.82, 1.56 53.37, 0 11.39 M0 128.99 C-1.04 101.46, -0.43 74.93, 0 11.39 M0 11.39 C1.05 5.09, 3.95 1.43, 11.39 0 M0 11.39 C-0.42 3.24, 4.55 -1.81, 11.39 0" stroke="#1e1e1e" stroke-width="2" fill="none"></path></g><g stroke-linecap="round" transform="translate(10 52.3359375) rotate(0 22.775390625 70.1875)"><path d="M11.39 0 C17.58 -1.47, 21.84 -0.03, 34.16 0 M11.39 0 C17.38 -0.1, 24.06 0.56, 34.16 0 M34.16 0 C41.36 0.82, 44.06 2.05, 45.55 11.39 M34.16 0 C43.32 0.92, 44.84 1.79, 45.55 11.39 M45.55 11.39 C47.12 48.01, 45.39 84.8, 45.55 128.99 M45.55 11.39 C45.84 49.55, 47.48 87.4, 45.55 128.99 M45.55 128.99 C45.73 135.85, 40.78 140.19, 34.16 140.38 M45.55 128.99 C43.45 137.05, 39.94 142.33, 34.16 140.38 M34.16 140.38 C29.98 138.59, 24.17 140.12, 11.39 140.38 M34.16 140.38 C25.76 140.67, 17.58 141.49, 11.39 140.38 M11.39 140.38 C4.01 138.71, -0.12 135.34, 0 128.99 M11.39 140.38 C4.16 139.83, 0.52 137.22, 0 128.99 M0 128.99 C2.39 87.79, -0.85 47.23, 0 11.39 M0 128.99 C0.67 103.28, 0.9 77.18, 0 11.39 M0 11.39 C0.15 5.23, 3.43 -0.48, 11.39 0 M0 11.39 C0.76 1.99, 2.47 -0.25, 11.39 0" stroke="#1e1e1e" stroke-width="2" fill="none"></path></g><g stroke-linecap="round"><g stroke-opacity="0.4" fill-opacity="0.4" transform="translate(10.869140625 86.91015625) rotate(0 22.763671875 0)"><path d="M0 0 C7.59 0, 37.94 0, 45.53 0 M0 0 C7.59 0, 37.94 0, 45.53 0" stroke="#1e1e1e" stroke-width="1" fill="none"></path></g></g><mask></mask><g stroke-linecap="round"><g stroke-opacity="0.4" fill-opacity="0.4" transform="translate(10.791015625 119.0703125) rotate(0 23.10546875 0)"><path d="M0 0 C7.7 0, 38.51 0, 46.21 0 M0 0 C7.7 0, 38.51 0, 46.21 0" stroke="#1e1e1e" stroke-width="1" fill="none"></path></g></g><mask></mask><g stroke-linecap="round"><g stroke-opacity="0.4" fill-opacity="0.4" transform="translate(11.966796875 151.953125) rotate(0 22.54296875 0)"><path d="M0 0 C7.51 0, 37.57 0, 45.09 0 M0 0 C7.51 0, 37.57 0, 45.09 0" stroke="#1e1e1e" stroke-width="1" fill="none"></path></g></g><mask></mask><g stroke-linecap="round" transform="translate(80.84179575000002 52.6015625) rotate(0 22.775390625 70.1875)"><path d="M11.39 0 C19.78 1.31, 25.6 -1.15, 34.16 0 M11.39 0 C17.2 0.17, 22 -0.24, 34.16 0 M34.16 0 C41.75 0.79, 46.59 2.73, 45.55 11.39 M34.16 0 C42.56 -2.02, 44.5 4.3, 45.55 11.39 M45.55 11.39 C46 49.22, 46.69 84.51, 45.55 128.99 M45.55 11.39 C45.02 44.55, 45.59 76.66, 45.55 128.99 M45.55 128.99 C45.72 135.46, 42.32 141.76, 34.16 140.38 M45.55 128.99 C44.87 135.96, 41.17 138.71, 34.16 140.38 M34.16 140.38 C24.9 139.16, 18.07 140.83, 11.39 140.38 M34.16 140.38 C25.69 141.27, 19.1 139.48, 11.39 140.38 M11.39 140.38 C5.36 139.02, -1.81 137.16, 0 128.99 M11.39 140.38 C5.59 139.79, 2.01 137.69, 0 128.99 M0 128.99 C2.69 103.79, -0.96 80.48, 0 11.39 M0 128.99 C-0.49 89.1, -0.55 48.96, 0 11.39 M0 11.39 C1.12 2.21, 4.87 1.78, 11.39 0 M0 11.39 C0.88 5.33, 3.88 1.4, 11.39 0" stroke="#1e1e1e" stroke-width="2" fill="none"></path></g><g stroke-linecap="round" transform="translate(80.59570200000002 52.3359375) rotate(0 22.775390625 70.1875)"><path d="M11.39 0 C16.21 -1.42, 21.26 -1.38, 34.16 0 M11.39 0 C17.41 -0.28, 25.19 0.35, 34.16 0 M34.16 0 C42.79 -1.07, 46.25 2.04, 45.55 11.39 M34.16 0 C40.7 0.51, 45.72 2.23, 45.55 11.39 M45.55 11.39 C48.23 51.88, 45.87 90.83, 45.55 128.99 M45.55 11.39 C44.74 47.18, 44.89 83.14, 45.55 128.99 M45.55 128.99 C46.12 137.96, 41.16 139.83, 34.16 140.38 M45.55 128.99 C44.97 134.91, 43.09 141.27, 34.16 140.38 M34.16 140.38 C26.01 140.53, 18 139.68, 11.39 140.38 M34.16 140.38 C27 139.65, 20.83 139.89, 11.39 140.38 M11.39 140.38 C1.99 140.96, 1.56 136.07, 0 128.99 M11.39 140.38 C5.8 141.49, -2.26 134.95, 0 128.99 M0 128.99 C-2.89 92.72, -0.27 58.61, 0 11.39 M0 128.99 C0.03 101.61, 1.17 73.02, 0 11.39 M0 11.39 C1.08 5.58, 4.56 1.33, 11.39 0 M0 11.39 C0.08 5.19, 5.85 -1.25, 11.39 0" stroke="#1e1e1e" stroke-width="2" fill="none"></path></g><g stroke-linecap="round"><g stroke-opacity="0.4" fill-opacity="0.4" transform="translate(81.46484262500002 86.91015625) rotate(0 22.763671875 0)"><path d="M0 0 C7.59 0, 37.94 0, 45.53 0 M0 0 C7.59 0, 37.94 0, 45.53 0" stroke="#1e1e1e" stroke-width="1" fill="none"></path></g></g><mask></mask><g stroke-linecap="round"><g stroke-opacity="0.4" fill-opacity="0.4" transform="translate(81.38671762500002 119.0703125) rotate(0 23.10546875 0)"><path d="M0 0 C7.7 0, 38.51 0, 46.21 0 M0 0 C7.7 0, 38.51 0, 46.21 0" stroke="#1e1e1e" stroke-width="1" fill="none"></path></g></g><mask></mask><g stroke-linecap="round"><g stroke-opacity="0.4" fill-opacity="0.4" transform="translate(82.56249887500002 151.953125) rotate(0 22.54296875 0)"><path d="M0 0 C7.51 0, 37.57 0, 45.09 0 M0 0 C7.51 0, 37.57 0, 45.09 0" stroke="#1e1e1e" stroke-width="1" fill="none"></path></g></g><mask></mask><g stroke-linecap="round" transform="translate(151.16844775000004 52.6015625) rotate(0 22.775390625 70.1875)"><path d="M11.39 0 C15.22 -1.75, 23.8 1.83, 34.16 0 M11.39 0 C20.32 0.96, 28.34 0.43, 34.16 0 M34.16 0 C42.17 1.13, 46.34 3.28, 45.55 11.39 M34.16 0 C40.59 1.86, 47.63 5.67, 45.55 11.39 M45.55 11.39 C47.7 37.04, 44.93 62.98, 45.55 128.99 M45.55 11.39 C46.82 38.04, 46.03 66.82, 45.55 128.99 M45.55 128.99 C45.21 135.04, 41.77 138.89, 34.16 140.38 M45.55 128.99 C44.99 138.47, 42.25 142.47, 34.16 140.38 M34.16 140.38 C29.89 140.77, 21.58 141.6, 11.39 140.38 M34.16 140.38 C27.29 141.26, 22.5 139.4, 11.39 140.38 M11.39 140.38 C2.1 139.44, -1.57 138.36, 0 128.99 M11.39 140.38 C1.97 142.56, -1.6 136.28, 0 128.99 M0 128.99 C-1.52 98.68, 0.68 68.76, 0 11.39 M0 128.99 C0.2 87.79, 0.61 47.86, 0 11.39 M0 11.39 C0.82 3.13, 4.85 -0.73, 11.39 0 M0 11.39 C-0.61 2.41, 2.72 1.16, 11.39 0" stroke="#1e1e1e" stroke-width="2" fill="none"></path></g><g stroke-linecap="round" transform="translate(150.92235400000004 52.3359375) rotate(0 22.775390625 70.1875)"><path d="M11.39 0 C19.42 2.04, 26.86 0.53, 34.16 0 M11.39 0 C16.57 0.07, 21.65 0.39, 34.16 0 M34.16 0 C42.54 -0.52, 44.54 5.41, 45.55 11.39 M34.16 0 C43.83 1.87, 43.6 5.57, 45.55 11.39 M45.55 11.39 C44.76 41.1, 44.96 70.43, 45.55 128.99 M45.55 11.39 C45.44 41.32, 45.75 69.67, 45.55 128.99 M45.55 128.99 C45.57 135.09, 41.27 142.02, 34.16 140.38 M45.55 128.99 C46.04 138.67, 40.64 140.7, 34.16 140.38 M34.16 140.38 C27.79 141.82, 22.83 140.31, 11.39 140.38 M34.16 140.38 C27.51 139.61, 19.75 140.11, 11.39 140.38 M11.39 140.38 C2.22 142.16, -1.59 138.48, 0 128.99 M11.39 140.38 C2.2 140.08, -1.1 136.78, 0 128.99 M0 128.99 C1.62 101.88, 1.81 75.51, 0 11.39 M0 128.99 C0.48 84.76, 0.87 38.36, 0 11.39 M0 11.39 C1.06 3.06, 3.27 -1.2, 11.39 0 M0 11.39 C-1.07 4.95, 1.71 0.99, 11.39 0" stroke="#1e1e1e" stroke-width="2" fill="none"></path></g><g stroke-linecap="round"><g stroke-opacity="0.4" fill-opacity="0.4" transform="translate(151.79149462500004 86.91015625) rotate(0 22.763671875 0)"><path d="M0 0 C7.59 0, 37.94 0, 45.53 0 M0 0 C7.59 0, 37.94 0, 45.53 0" stroke="#1e1e1e" stroke-width="1" fill="none"></path></g></g><mask></mask><g stroke-linecap="round"><g stroke-opacity="0.4" fill-opacity="0.4" transform="translate(151.71336962500004 119.0703125) rotate(0 23.10546875 0)"><path d="M0 0 C7.7 0, 38.51 0, 46.21 0 M0 0 C7.7 0, 38.51 0, 46.21 0" stroke="#1e1e1e" stroke-width="1" fill="none"></path></g></g><mask></mask><g stroke-linecap="round"><g stroke-opacity="0.4" fill-opacity="0.4" transform="translate(152.88915087500004 151.953125) rotate(0 22.54296875 0)"><path d="M0 0 C7.51 0, 37.57 0, 45.09 0 M0 0 C7.51 0, 37.57 0, 45.09 0" stroke="#1e1e1e" stroke-width="1" fill="none"></path></g></g><mask></mask><g stroke-linecap="round" transform="translate(309.73568175000014 52.601563) rotate(0 22.775390625 70.1875)"><path d="M11.39 0 C17.33 -1.73, 22.78 -1.25, 34.16 0 M11.39 0 C17.95 -0.66, 23.9 -0.41, 34.16 0 M34.16 0 C40.9 0.19, 45.4 3.55, 45.55 11.39 M34.16 0 C40.26 0.49, 46.05 5.44, 45.55 11.39 M45.55 11.39 C44.97 54.67, 45.34 96.29, 45.55 128.99 M45.55 11.39 C45.55 50.57, 43.98 87.64, 45.55 128.99 M45.55 128.99 C43.96 137.77, 42.88 140.14, 34.16 140.38 M45.55 128.99 C45.55 137.13, 42.64 138.8, 34.16 140.38 M34.16 140.38 C27.34 141.39, 20.86 138.86, 11.39 140.38 M34.16 140.38 C26.62 141.14, 19.81 139.93, 11.39 140.38 M11.39 140.38 C3.13 141.28, 0.78 136.85, 0 128.99 M11.39 140.38 C3.55 138.54, 1.8 135.72, 0 128.99 M0 128.99 C0.57 98.35, 1.92 68.15, 0 11.39 M0 128.99 C0.15 95.03, 1.21 61, 0 11.39 M0 11.39 C0.07 1.87, 2.43 0.61, 11.39 0 M0 11.39 C0.5 1.91, 2.14 -1.78, 11.39 0" stroke="#1e1e1e" stroke-width="2" fill="none"></path></g><g stroke-linecap="round" transform="translate(309.48958800000014 52.335938) rotate(0 22.775390625 70.1875)"><path d="M11.39 0 C20.7 -0.98, 26.48 -0.09, 34.16 0 M11.39 0 C18.96 -0.18, 26.86 0.22, 34.16 0 M34.16 0 C41.6 -0.24, 44.25 4.22, 45.55 11.39 M34.16 0 C42.25 1.64, 46.81 6.06, 45.55 11.39 M45.55 11.39 C43.17 59.76, 45.1 103.55, 45.55 128.99 M45.55 11.39 C46.07 55.92, 45.89 103.02, 45.55 128.99 M45.55 128.99 C46.68 136.35, 41.76 140.86, 34.16 140.38 M45.55 128.99 C46.44 135.01, 41.55 139.43, 34.16 140.38 M34.16 140.38 C27.19 138.97, 20.23 139.24, 11.39 140.38 M34.16 140.38 C24.28 139.83, 15.81 140.95, 11.39 140.38 M11.39 140.38 C4.57 140.64, -0.22 134.98, 0 128.99 M11.39 140.38 C5.6 139.52, -0.83 136.69, 0 128.99 M0 128.99 C1.61 95.29, -0.52 57.86, 0 11.39 M0 128.99 C1.16 97.44, 0.73 63.35, 0 11.39 M0 11.39 C-1.36 4.41, 4.23 -1.64, 11.39 0 M0 11.39 C-1.65 2.02, 5.38 -1.08, 11.39 0" stroke="#1e1e1e" stroke-width="2" fill="none"></path></g><g stroke-linecap="round"><g stroke-opacity="0.4" fill-opacity="0.4" transform="translate(310.35872862500014 86.91015675) rotate(0 22.763671875 0)"><path d="M0 0 C7.59 0, 37.94 0, 45.53 0 M0 0 C7.59 0, 37.94 0, 45.53 0" stroke="#1e1e1e" stroke-width="1" fill="none"></path></g></g><mask></mask><g stroke-linecap="round"><g stroke-opacity="0.4" fill-opacity="0.4" transform="translate(310.28060362500014 119.070313) rotate(0 23.10546875 0)"><path d="M0 0 C7.7 0, 38.51 0, 46.21 0 M0 0 C7.7 0, 38.51 0, 46.21 0" stroke="#1e1e1e" stroke-width="1" fill="none"></path></g></g><mask></mask><g stroke-linecap="round"><g stroke-opacity="0.4" fill-opacity="0.4" transform="translate(311.45638487500014 151.9531255) rotate(0 22.54296875 0)"><path d="M0 0 C7.51 0, 37.57 0, 45.09 0 M0 0 C7.51 0, 37.57 0, 45.09 0" stroke="#1e1e1e" stroke-width="1" fill="none"></path></g></g><mask></mask><g stroke-linecap="round" transform="translate(382.21920175000014 52.601562) rotate(0 22.775390625 70.1875)"><path d="M11.39 0 C19.66 -0.22, 27.83 1.93, 34.16 0 M11.39 0 C18.1 0.55, 26.5 0.5, 34.16 0 M34.16 0 C43.47 -1.63, 47.5 2.4, 45.55 11.39 M34.16 0 C41.37 2.05, 46.63 5.03, 45.55 11.39 M45.55 11.39 C47.63 48.02, 45.01 83.12, 45.55 128.99 M45.55 11.39 C45.36 55.37, 44.28 97.61, 45.55 128.99 M45.55 128.99 C45.09 135.37, 40.44 142.25, 34.16 140.38 M45.55 128.99 C44.34 136.56, 42.37 140.13, 34.16 140.38 M34.16 140.38 C29.79 142.18, 23.81 140.49, 11.39 140.38 M34.16 140.38 C27 140.65, 22.05 140.58, 11.39 140.38 M11.39 140.38 C3.29 141.64, 1.64 136.48, 0 128.99 M11.39 140.38 C5.51 142.55, -1.76 135.81, 0 128.99 M0 128.99 C-2.04 88.78, 1.49 52.81, 0 11.39 M0 128.99 C0.71 84.72, -0.15 39.34, 0 11.39 M0 11.39 C-1.09 4.81, 2.99 1.24, 11.39 0 M0 11.39 C0.49 2.31, 4.16 1.03, 11.39 0" stroke="#1e1e1e" stroke-width="2" fill="none"></path></g><g stroke-linecap="round" transform="translate(381.97310800000014 52.335937) rotate(0 22.775390625 70.1875)"><path d="M11.39 0 C19.74 1.16, 28.21 1.34, 34.16 0 M11.39 0 C19.16 0.78, 27.87 -0.36, 34.16 0 M34.16 0 C43.54 0.93, 46.63 3.83, 45.55 11.39 M34.16 0 C42.2 1.14, 47.68 5.13, 45.55 11.39 M45.55 11.39 C44.61 43.75, 47.29 74.2, 45.55 128.99 M45.55 11.39 C44.49 40.75, 46.03 70.91, 45.55 128.99 M45.55 128.99 C45.54 137.12, 41.54 139.44, 34.16 140.38 M45.55 128.99 C43.83 137.83, 43.36 142.31, 34.16 140.38 M34.16 140.38 C26.78 138.47, 15.9 141.29, 11.39 140.38 M34.16 140.38 C27.24 141.14, 19 141.06, 11.39 140.38 M11.39 140.38 C5.68 138.84, -0.67 137.17, 0 128.99 M11.39 140.38 C4.63 138.08, -1.86 134.91, 0 128.99 M0 128.99 C-0.47 84.34, 1.01 36.72, 0 11.39 M0 128.99 C0.91 92.93, 1.02 57.9, 0 11.39 M0 11.39 C-1.29 4.12, 4.69 0.34, 11.39 0 M0 11.39 C-0.57 5.26, 3.62 0.94, 11.39 0" stroke="#1e1e1e" stroke-width="2" fill="none"></path></g><g stroke-linecap="round"><g stroke-opacity="0.4" fill-opacity="0.4" transform="translate(382.84224862500014 86.91015575) rotate(0 22.763671875 0)"><path d="M0 0 C7.59 0, 37.94 0, 45.53 0 M0 0 C7.59 0, 37.94 0, 45.53 0" stroke="#1e1e1e" stroke-width="1" fill="none"></path></g></g><mask></mask><g stroke-linecap="round"><g stroke-opacity="0.4" fill-opacity="0.4" transform="translate(382.76412362500014 119.070312) rotate(0 23.10546875 0)"><path d="M0 0 C7.7 0, 38.51 0, 46.21 0 M0 0 C7.7 0, 38.51 0, 46.21 0" stroke="#1e1e1e" stroke-width="1" fill="none"></path></g></g><mask></mask><g stroke-linecap="round"><g stroke-opacity="0.4" fill-opacity="0.4" transform="translate(383.93990487500014 151.9531245) rotate(0 22.54296875 0)"><path d="M0 0 C7.51 0, 37.57 0, 45.09 0 M0 0 C7.51 0, 37.57 0, 45.09 0" stroke="#1e1e1e" stroke-width="1" fill="none"></path></g></g><mask></mask><g transform="translate(29.19036862500002 224.2226565) rotate(0 2.167999267578125 10)"><text x="0" y="14.016" font-family="Virgil, Segoe UI Emoji" font-size="16px" fill="#1e1e1e" text-anchor="start" style="white-space: pre;" direction="ltr" dominant-baseline="alphabetic">1</text></g><g transform="translate(98.42606987500005 224.22265675) rotate(0 5.6959991455078125 10)"><text x="0" y="14.016" font-family="Virgil, Segoe UI Emoji" font-size="16px" fill="#1e1e1e" text-anchor="start" style="white-space: pre;" direction="ltr" dominant-baseline="alphabetic">2</text></g><g transform="translate(168.75272172949224 224.48437525) rotate(0 5.447998046875 10)"><text x="0" y="14.016" font-family="Virgil, Segoe UI Emoji" font-size="16px" fill="#1e1e1e" text-anchor="start" style="white-space: pre;" direction="ltr" dominant-baseline="alphabetic">3</text></g><g transform="translate(327.5679568281249 224.2226565) rotate(0 6.1199951171875 10)"><text x="0" y="14.016" font-family="Virgil, Segoe UI Emoji" font-size="16px" fill="#1e1e1e" text-anchor="start" style="white-space: pre;" direction="ltr" dominant-baseline="alphabetic">8</text></g><g transform="translate(399.3794798281249 224.480469) rotate(0 4.8719940185546875 10)"><text x="0" y="14.016" font-family="Virgil, Segoe UI Emoji" font-size="16px" fill="#1e1e1e" text-anchor="start" style="white-space: pre;" direction="ltr" dominant-baseline="alphabetic">9</text></g></svg>