<svg version="1.1" xmlns="http://www.w3.org/2000/svg" viewBox="0 0 625.4048583283693 405.1601560000001" width="1250.8097166567386" height="810.3203120000002">
  <!-- svg-source:excalidraw -->

  <defs>
    <style class="style-fonts">
      @font-face {
        font-family: "Virgil";
        src: url("/fonts/Virgil.woff2");
      }
      @font-face {
        font-family: "Cascadia";
        src: url("/fonts/Cascadia.woff2");
      }
      @font-face {
        font-family: "Assistant";
        src: url("/fonts/Assistant-Regular.woff2");
      }
    </style>

  </defs>
  <rect x="0" y="0" width="625.4048583283693" height="405.1601560000001" fill="#ffffff"></rect><g stroke-linecap="round"><g transform="translate(219.553014125 122.65624925000003) rotate(0 34.179324669763446 -1.7376158487051612)"><path d="M0.04 -1.19 C11.45 -1.5, 56.81 -1.88, 68.32 -2.29" stroke="#1e1e1e" stroke-width="2.5" fill="none" stroke-dasharray="8 10"></path></g></g><mask></mask><g transform="translate(17.466384624999932 10) rotate(0 16.059982299804688 12.5)"><text x="0" y="17.52" font-family="Virgil, Segoe UI Emoji" font-size="20px" fill="#1e1e1e" text-anchor="start" style="white-space: pre;" direction="ltr" dominant-baseline="alphabetic">the</text></g><g transform="translate(86.782080125 10.000000499999999) rotate(0 17.339988708496094 12.5)"><text x="0" y="17.52" font-family="Virgil, Segoe UI Emoji" font-size="20px" fill="#1e1e1e" text-anchor="start" style="white-space: pre;" direction="ltr" dominant-baseline="alphabetic">cat</text></g><g transform="translate(158.919507166504 10.019531749999999) rotate(0 18.189987182617188 12.5)"><text x="0" y="17.52" font-family="Virgil, Segoe UI Emoji" font-size="20px" fill="#1e1e1e" text-anchor="start" style="white-space: pre;" direction="ltr" dominant-baseline="alphabetic">was</text></g><g transform="translate(316.955973166504 10.00000074999997) rotate(0 16.059982299804688 12.5)"><text x="0" y="17.52" font-family="Virgil, Segoe UI Emoji" font-size="20px" fill="#1e1e1e" text-anchor="start" style="white-space: pre;" direction="ltr" dominant-baseline="alphabetic">the</text></g><g transform="translate(378.43950766650414 10.019531500000028) rotate(0 27.059967041015625 12.5)"><text x="0" y="17.52" font-family="Virgil, Segoe UI Emoji" font-size="20px" fill="#1e1e1e" text-anchor="start" style="white-space: pre;" direction="ltr" dominant-baseline="alphabetic">house</text></g><g stroke-linecap="round" transform="translate(10.246093999999971 52.6015625) rotate(0 22.775390625 70.1875)"><path d="M11.39 0 C16.22 1.09, 22.59 -1.33, 34.16 0 M11.39 0 C20.11 0.01, 28.59 -0.48, 34.16 0 M34.16 0 C41.69 0.27, 46.6 4.2, 45.55 11.39 M34.16 0 C40.61 1.84, 43.9 5.97, 45.55 11.39 M45.55 11.39 C48.55 41.97, 47.51 72.57, 45.55 128.99 M45.55 11.39 C44.28 54.89, 45.14 100.27, 45.55 128.99 M45.55 128.99 C46.48 137.33, 41.41 138.65, 34.16 140.38 M45.55 128.99 C44.47 137.72, 39.51 140.24, 34.16 140.38 M34.16 140.38 C24.13 141.49, 16.92 138.85, 11.39 140.38 M34.16 140.38 C27.34 140.54, 18.4 140.86, 11.39 140.38 M11.39 140.38 C5.7 141.25, 1.05 136.33, 0 128.99 M11.39 140.38 C4.39 141.75, -0.26 138.52, 0 128.99 M0 128.99 C-2.36 82.61, -2.86 38.36, 0 11.39 M0 128.99 C0.22 100.93, 1.11 71.45, 0 11.39 M0 11.39 C0.86 4.72, 4.88 -0.36, 11.39 0 M0 11.39 C2.16 3.44, 3.48 1.9, 11.39 0" stroke="#1e1e1e" stroke-width="2" fill="none"></path></g><g stroke-linecap="round" transform="translate(10.000000249999971 52.3359375) rotate(0 22.775390625 70.1875)"><path d="M11.39 0 C18.4 -1.48, 25.84 1.74, 34.16 0 M11.39 0 C17.49 -0.61, 21.89 0.17, 34.16 0 M34.16 0 C42.8 0.4, 44.56 5.4, 45.55 11.39 M34.16 0 C40.1 2.18, 44.58 5.98, 45.55 11.39 M45.55 11.39 C47.5 52.19, 48.19 91.16, 45.55 128.99 M45.55 11.39 C44.6 56.2, 45.03 100.71, 45.55 128.99 M45.55 128.99 C45.2 134.85, 40.82 141.37, 34.16 140.38 M45.55 128.99 C43.31 136.44, 43.49 138.3, 34.16 140.38 M34.16 140.38 C26.87 138.94, 20.54 141.12, 11.39 140.38 M34.16 140.38 C26.83 140.9, 21.48 140.85, 11.39 140.38 M11.39 140.38 C4.84 140.13, 0.51 137.78, 0 128.99 M11.39 140.38 C3.54 142.31, 1.87 138.5, 0 128.99 M0 128.99 C-1.07 103.86, -0.31 79.92, 0 11.39 M0 128.99 C0.92 94.45, 0.66 60.78, 0 11.39 M0 11.39 C1.09 3.43, 5.67 -0.31, 11.39 0 M0 11.39 C-0.31 5.7, 5.83 -0.33, 11.39 0" stroke="#1e1e1e" stroke-width="2" fill="none"></path></g><g stroke-linecap="round"><g stroke-opacity="0.4" fill-opacity="0.4" transform="translate(10.869140874999971 86.91015624999994) rotate(0 22.763671875 0)"><path d="M0 0 C7.59 0, 37.94 0, 45.53 0 M0 0 C7.59 0, 37.94 0, 45.53 0" stroke="#1e1e1e" stroke-width="1" fill="none"></path></g></g><mask></mask><g stroke-linecap="round"><g stroke-opacity="0.4" fill-opacity="0.4" transform="translate(10.791015874999971 119.07031249999994) rotate(0 23.10546875 0)"><path d="M0 0 C7.7 0, 38.51 0, 46.21 0 M0 0 C7.7 0, 38.51 0, 46.21 0" stroke="#1e1e1e" stroke-width="1" fill="none"></path></g></g><mask></mask><g stroke-linecap="round"><g stroke-opacity="0.4" fill-opacity="0.4" transform="translate(11.966797124999971 151.95312499999994) rotate(0 22.54296875 0)"><path d="M0 0 C7.51 0, 37.57 0, 45.09 0 M0 0 C7.51 0, 37.57 0, 45.09 0" stroke="#1e1e1e" stroke-width="1" fill="none"></path></g></g><mask></mask><g stroke-linecap="round" transform="translate(80.84179599999993 52.6015625) rotate(0 22.775390625 70.1875)"><path d="M11.39 0 C17.39 -1.28, 23.55 -1.71, 34.16 0 M11.39 0 C19 0.24, 26.69 -0.61, 34.16 0 M34.16 0 C41.25 0.07, 47.18 4.75, 45.55 11.39 M34.16 0 C39.69 0.51, 44.84 2.4, 45.55 11.39 M45.55 11.39 C46.79 50.61, 44.81 89.51, 45.55 128.99 M45.55 11.39 C46.06 46.99, 45.56 83.46, 45.55 128.99 M45.55 128.99 C45.84 135.44, 42.87 142.3, 34.16 140.38 M45.55 128.99 C44.43 137.5, 42.43 138.56, 34.16 140.38 M34.16 140.38 C26.42 142.04, 18.4 141.86, 11.39 140.38 M34.16 140.38 C28.95 140.76, 22.43 141.4, 11.39 140.38 M11.39 140.38 C2.3 142.01, -0.56 135.46, 0 128.99 M11.39 140.38 C4.54 142.25, -0.56 136.64, 0 128.99 M0 128.99 C-1.04 97.22, -2.92 62.62, 0 11.39 M0 128.99 C0.62 84.56, 0.15 41.98, 0 11.39 M0 11.39 C-2 3.52, 2.35 1.39, 11.39 0 M0 11.39 C-0.09 2.54, 2.4 0.33, 11.39 0" stroke="#1e1e1e" stroke-width="2" fill="none"></path></g><g stroke-linecap="round" transform="translate(80.59570224999993 52.3359375) rotate(0 22.775390625 70.1875)"><path d="M11.39 0 C17.73 -1.75, 21.71 -0.76, 34.16 0 M11.39 0 C15.58 -0.83, 20.36 0.03, 34.16 0 M34.16 0 C43.38 0.96, 43.75 4.24, 45.55 11.39 M34.16 0 C41.04 -1.4, 46.44 3.85, 45.55 11.39 M45.55 11.39 C45.49 53.09, 46.34 97.15, 45.55 128.99 M45.55 11.39 C47.01 57.99, 46.75 102.89, 45.55 128.99 M45.55 128.99 C46.67 138.5, 40.78 141.18, 34.16 140.38 M45.55 128.99 C46.22 134.77, 43.01 139.51, 34.16 140.38 M34.16 140.38 C27.09 141.98, 18.06 142.26, 11.39 140.38 M34.16 140.38 C25.62 141.36, 17.74 141.26, 11.39 140.38 M11.39 140.38 C3.23 139.26, 0.64 138.21, 0 128.99 M11.39 140.38 C3.24 140.44, -0.56 138.4, 0 128.99 M0 128.99 C-1.92 91.63, 1.45 57.96, 0 11.39 M0 128.99 C-0.64 88.21, -2.17 47.56, 0 11.39 M0 11.39 C-1.45 5.19, 3.72 -1.09, 11.39 0 M0 11.39 C-1.4 4.13, 5.14 0.51, 11.39 0" stroke="#1e1e1e" stroke-width="2" fill="none"></path></g><g stroke-linecap="round"><g stroke-opacity="0.4" fill-opacity="0.4" transform="translate(81.46484287499993 86.91015624999994) rotate(0 22.763671875 0)"><path d="M0 0 C7.59 0, 37.94 0, 45.53 0 M0 0 C7.59 0, 37.94 0, 45.53 0" stroke="#1e1e1e" stroke-width="1" fill="none"></path></g></g><mask></mask><g stroke-linecap="round"><g stroke-opacity="0.4" fill-opacity="0.4" transform="translate(81.38671787499993 119.07031249999994) rotate(0 23.10546875 0)"><path d="M0 0 C7.7 0, 38.51 0, 46.21 0 M0 0 C7.7 0, 38.51 0, 46.21 0" stroke="#1e1e1e" stroke-width="1" fill="none"></path></g></g><mask></mask><g stroke-linecap="round"><g stroke-opacity="0.4" fill-opacity="0.4" transform="translate(82.56249912499993 151.95312499999994) rotate(0 22.54296875 0)"><path d="M0 0 C7.51 0, 37.57 0, 45.09 0 M0 0 C7.51 0, 37.57 0, 45.09 0" stroke="#1e1e1e" stroke-width="1" fill="none"></path></g></g><mask></mask><g stroke-linecap="round" transform="translate(151.168448 52.6015625) rotate(0 22.775390625 70.1875)"><path d="M11.39 0 C16 -0.4, 24 1.72, 34.16 0 M11.39 0 C19 -0.66, 27.61 -0.03, 34.16 0 M34.16 0 C43.1 1.21, 44.96 3.03, 45.55 11.39 M34.16 0 C40.02 0.09, 44.78 5.9, 45.55 11.39 M45.55 11.39 C46.51 57.53, 44.23 104.2, 45.55 128.99 M45.55 11.39 C45.27 57.19, 45.53 104.2, 45.55 128.99 M45.55 128.99 C46.11 136.92, 43.36 140.77, 34.16 140.38 M45.55 128.99 C47.19 135.24, 43.72 141.39, 34.16 140.38 M34.16 140.38 C28.51 138.72, 20.8 139.65, 11.39 140.38 M34.16 140.38 C28.36 140.59, 22.79 141.35, 11.39 140.38 M11.39 140.38 C3.89 140.26, 0.65 134.59, 0 128.99 M11.39 140.38 C2.04 141.97, 0.73 137.63, 0 128.99 M0 128.99 C0.9 80.03, 0.89 33.62, 0 11.39 M0 128.99 C-0.56 85.66, 0.63 42.27, 0 11.39 M0 11.39 C-1.55 4.07, 5.01 -0.32, 11.39 0 M0 11.39 C-0.84 4.58, 3.26 0.5, 11.39 0" stroke="#1e1e1e" stroke-width="2" fill="none"></path></g><g stroke-linecap="round" transform="translate(150.92235425 52.3359375) rotate(0 22.775390625 70.1875)"><path d="M11.39 0 C17.33 1.68, 24.09 -1.74, 34.16 0 M11.39 0 C19.12 0.16, 26.75 0.74, 34.16 0 M34.16 0 C41.16 -0.77, 44.04 3.88, 45.55 11.39 M34.16 0 C40.99 2.1, 47.62 3.45, 45.55 11.39 M45.55 11.39 C45.08 52.53, 48.14 90.47, 45.55 128.99 M45.55 11.39 C46.44 51.01, 46.17 91.54, 45.55 128.99 M45.55 128.99 C47.15 136.97, 43.18 139.21, 34.16 140.38 M45.55 128.99 C47.51 137.59, 42.43 141.03, 34.16 140.38 M34.16 140.38 C30.59 139.64, 22.62 140.85, 11.39 140.38 M34.16 140.38 C25.23 141.17, 16.84 140.33, 11.39 140.38 M11.39 140.38 C4.45 138.39, -1.53 137.97, 0 128.99 M11.39 140.38 C4.53 141.42, 2.28 134.3, 0 128.99 M0 128.99 C-0.12 86.05, 1.55 45.93, 0 11.39 M0 128.99 C1.3 100.35, -0.06 71.4, 0 11.39 M0 11.39 C1.21 3.48, 3.06 0.68, 11.39 0 M0 11.39 C-0.54 4.29, 1.5 -1.94, 11.39 0" stroke="#1e1e1e" stroke-width="2" fill="none"></path></g><g stroke-linecap="round"><g stroke-opacity="0.4" fill-opacity="0.4" transform="translate(151.791494875 86.91015624999994) rotate(0 22.763671875 0)"><path d="M0 0 C7.59 0, 37.94 0, 45.53 0 M0 0 C7.59 0, 37.94 0, 45.53 0" stroke="#1e1e1e" stroke-width="1" fill="none"></path></g></g><mask></mask><g stroke-linecap="round"><g stroke-opacity="0.4" fill-opacity="0.4" transform="translate(151.713369875 119.07031249999994) rotate(0 23.10546875 0)"><path d="M0 0 C7.7 0, 38.51 0, 46.21 0 M0 0 C7.7 0, 38.51 0, 46.21 0" stroke="#1e1e1e" stroke-width="1" fill="none"></path></g></g><mask></mask><g stroke-linecap="round"><g stroke-opacity="0.4" fill-opacity="0.4" transform="translate(152.889151125 151.95312499999994) rotate(0 22.54296875 0)"><path d="M0 0 C7.51 0, 37.57 0, 45.09 0 M0 0 C7.51 0, 37.57 0, 45.09 0" stroke="#1e1e1e" stroke-width="1" fill="none"></path></g></g><mask></mask><g stroke-linecap="round" transform="translate(309.7356820000001 52.601563) rotate(0 22.775390625 70.1875)"><path d="M11.39 0 C17.56 1.26, 24.86 -0.68, 34.16 0 M11.39 0 C17.01 0.91, 24.2 -0.16, 34.16 0 M34.16 0 C42.56 1.14, 45.84 2.65, 45.55 11.39 M34.16 0 C43.04 2.21, 44.43 4.72, 45.55 11.39 M45.55 11.39 C43.87 50.66, 44.96 90.43, 45.55 128.99 M45.55 11.39 C47.24 49.41, 46.68 86.83, 45.55 128.99 M45.55 128.99 C44.13 138.43, 40.26 142.01, 34.16 140.38 M45.55 128.99 C44.9 135.3, 42.49 142.25, 34.16 140.38 M34.16 140.38 C29.46 140.41, 21.49 140.97, 11.39 140.38 M34.16 140.38 C29.91 140.99, 26.02 139.54, 11.39 140.38 M11.39 140.38 C4.85 140.11, -2 136.3, 0 128.99 M11.39 140.38 C2.13 141.98, -0.09 135.32, 0 128.99 M0 128.99 C0.28 99.31, 0.11 73.96, 0 11.39 M0 128.99 C0.2 95.79, -0.57 61.31, 0 11.39 M0 11.39 C1.66 4.77, 4.24 1.42, 11.39 0 M0 11.39 C1.32 3.86, 3.11 -0.28, 11.39 0" stroke="#1e1e1e" stroke-width="2" fill="none"></path></g><g stroke-linecap="round" transform="translate(309.4895882500001 52.335938) rotate(0 22.775390625 70.1875)"><path d="M11.39 0 C20.31 -0.75, 26.04 -1.66, 34.16 0 M11.39 0 C19.21 -0.36, 25.64 0.36, 34.16 0 M34.16 0 C42.05 -1.14, 46.67 5.72, 45.55 11.39 M34.16 0 C40.64 0.92, 46.22 1.98, 45.55 11.39 M45.55 11.39 C45.45 54.71, 45.5 96.24, 45.55 128.99 M45.55 11.39 C46.85 40.12, 45.84 69.21, 45.55 128.99 M45.55 128.99 C44.05 138.22, 41.19 139.26, 34.16 140.38 M45.55 128.99 C46.29 138.45, 41.2 140.44, 34.16 140.38 M34.16 140.38 C27.77 141.04, 19.62 138.86, 11.39 140.38 M34.16 140.38 C26.74 139.49, 17.87 140.34, 11.39 140.38 M11.39 140.38 C1.8 140.1, -1.45 137.97, 0 128.99 M11.39 140.38 C3.71 139.12, -1.4 136.91, 0 128.99 M0 128.99 C0.01 88.03, -0.58 43.92, 0 11.39 M0 128.99 C-0.72 88.85, 1.1 50.89, 0 11.39 M0 11.39 C0.44 5.22, 4.94 0.06, 11.39 0 M0 11.39 C-0.69 3.51, 5.61 -1.26, 11.39 0" stroke="#1e1e1e" stroke-width="2" fill="none"></path></g><g stroke-linecap="round"><g stroke-opacity="0.4" fill-opacity="0.4" transform="translate(310.3587288750001 86.91015675) rotate(0 22.763671875 0)"><path d="M0 0 C7.59 0, 37.94 0, 45.53 0 M0 0 C7.59 0, 37.94 0, 45.53 0" stroke="#1e1e1e" stroke-width="1" fill="none"></path></g></g><mask></mask><g stroke-linecap="round"><g stroke-opacity="0.4" fill-opacity="0.4" transform="translate(310.2806038750001 119.070313) rotate(0 23.10546875 0)"><path d="M0 0 C7.7 0, 38.51 0, 46.21 0 M0 0 C7.7 0, 38.51 0, 46.21 0" stroke="#1e1e1e" stroke-width="1" fill="none"></path></g></g><mask></mask><g stroke-linecap="round"><g stroke-opacity="0.4" fill-opacity="0.4" transform="translate(311.4563851250001 151.9531255) rotate(0 22.54296875 0)"><path d="M0 0 C7.51 0, 37.57 0, 45.09 0 M0 0 C7.51 0, 37.57 0, 45.09 0" stroke="#1e1e1e" stroke-width="1" fill="none"></path></g></g><mask></mask><g stroke-linecap="round" transform="translate(382.2192020000002 52.601562) rotate(0 22.775390625 70.1875)"><path d="M11.39 0 C17.16 0.6, 24.67 0.09, 34.16 0 M11.39 0 C16.44 0.18, 22.75 -1.01, 34.16 0 M34.16 0 C42.85 -0.75, 46.11 4.13, 45.55 11.39 M34.16 0 C43.6 0.45, 47.19 2.46, 45.55 11.39 M45.55 11.39 C46.64 55.28, 47.92 100.52, 45.55 128.99 M45.55 11.39 C45.54 57.12, 44.98 101.25, 45.55 128.99 M45.55 128.99 C45.06 138.16, 41.85 140.26, 34.16 140.38 M45.55 128.99 C46.3 134.29, 40 141.97, 34.16 140.38 M34.16 140.38 C24.63 141.66, 18.78 138.6, 11.39 140.38 M34.16 140.38 C27.61 139.99, 20.52 140.68, 11.39 140.38 M11.39 140.38 C4.97 140.82, -1.55 136.85, 0 128.99 M11.39 140.38 C5.19 140.01, -0.84 137.36, 0 128.99 M0 128.99 C-1.94 98.11, 0.72 64.36, 0 11.39 M0 128.99 C-0.97 85.23, 0.12 41.16, 0 11.39 M0 11.39 C0.74 2.31, 2.37 -0.79, 11.39 0 M0 11.39 C1.54 4.21, 5.84 1.28, 11.39 0" stroke="#1e1e1e" stroke-width="2" fill="none"></path></g><g stroke-linecap="round" transform="translate(381.9731082500002 52.335937) rotate(0 22.775390625 70.1875)"><path d="M11.39 0 C21.41 0.2, 28 1.03, 34.16 0 M11.39 0 C20.7 -0.88, 29.98 -0.47, 34.16 0 M34.16 0 C42.31 0.34, 47.15 4.19, 45.55 11.39 M34.16 0 C43.39 -1.34, 47.51 4.81, 45.55 11.39 M45.55 11.39 C47.73 48.64, 47.52 88.31, 45.55 128.99 M45.55 11.39 C45.69 40.14, 45.69 69.63, 45.55 128.99 M45.55 128.99 C45.64 136.47, 42.41 138.39, 34.16 140.38 M45.55 128.99 C43.79 138.17, 42.48 141.42, 34.16 140.38 M34.16 140.38 C24.8 138.5, 15.7 139.05, 11.39 140.38 M34.16 140.38 C25.14 140.39, 17.91 140.47, 11.39 140.38 M11.39 140.38 C2.24 140.65, 1.21 136.26, 0 128.99 M11.39 140.38 C2.95 141.16, -0.54 137.08, 0 128.99 M0 128.99 C1.97 105.9, 2.42 83.07, 0 11.39 M0 128.99 C1.14 92.82, 0.72 57, 0 11.39 M0 11.39 C-1.42 3, 5.13 0.36, 11.39 0 M0 11.39 C2.05 5.08, 2.76 -0.63, 11.39 0" stroke="#1e1e1e" stroke-width="2" fill="none"></path></g><g stroke-linecap="round"><g stroke-opacity="0.4" fill-opacity="0.4" transform="translate(382.8422488750002 86.91015575) rotate(0 22.763671875 0)"><path d="M0 0 C7.59 0, 37.94 0, 45.53 0 M0 0 C7.59 0, 37.94 0, 45.53 0" stroke="#1e1e1e" stroke-width="1" fill="none"></path></g></g><mask></mask><g stroke-linecap="round"><g stroke-opacity="0.4" fill-opacity="0.4" transform="translate(382.7641238750002 119.070312) rotate(0 23.10546875 0)"><path d="M0 0 C7.7 0, 38.51 0, 46.21 0 M0 0 C7.7 0, 38.51 0, 46.21 0" stroke="#1e1e1e" stroke-width="1" fill="none"></path></g></g><mask></mask><g stroke-linecap="round"><g stroke-opacity="0.4" fill-opacity="0.4" transform="translate(383.9399051250002 151.9531245) rotate(0 22.54296875 0)"><path d="M0 0 C7.51 0, 37.57 0, 45.09 0 M0 0 C7.51 0, 37.57 0, 45.09 0" stroke="#1e1e1e" stroke-width="1" fill="none"></path></g></g><mask></mask><g transform="translate(29.19036887499999 223.92968775000003) rotate(0 2.167999267578125 10)"><text x="0" y="14.016" font-family="Virgil, Segoe UI Emoji" font-size="16px" fill="#1e1e1e" text-anchor="start" style="white-space: pre;" direction="ltr" dominant-baseline="alphabetic">1</text></g><g transform="translate(98.42607012500002 224.22265675) rotate(0 5.6959991455078125 10)"><text x="0" y="14.016" font-family="Virgil, Segoe UI Emoji" font-size="16px" fill="#1e1e1e" text-anchor="start" style="white-space: pre;" direction="ltr" dominant-baseline="alphabetic">2</text></g><g transform="translate(168.7527219794922 224.48437525000003) rotate(0 5.447998046875 10)"><text x="0" y="14.016" font-family="Virgil, Segoe UI Emoji" font-size="16px" fill="#1e1e1e" text-anchor="start" style="white-space: pre;" direction="ltr" dominant-baseline="alphabetic">3</text></g><g transform="translate(327.5679570781249 224.22265650000003) rotate(0 6.1199951171875 10)"><text x="0" y="14.016" font-family="Virgil, Segoe UI Emoji" font-size="16px" fill="#1e1e1e" text-anchor="start" style="white-space: pre;" direction="ltr" dominant-baseline="alphabetic">8</text></g><g transform="translate(399.37948007812474 224.48046900000003) rotate(0 4.8719940185546875 10)"><text x="0" y="14.016" font-family="Virgil, Segoe UI Emoji" font-size="16px" fill="#1e1e1e" text-anchor="start" style="white-space: pre;" direction="ltr" dominant-baseline="alphabetic">9</text></g><g stroke-linecap="round" transform="translate(10.24609375 254.78515599999997) rotate(0 22.775390625 70.1875)"><path d="M11.39 0 C18.35 1.32, 25.62 0.47, 34.16 0 M11.39 0 C19.59 -0.01, 29.74 -0.25, 34.16 0 M34.16 0 C42.91 0.46, 47.49 5.25, 45.55 11.39 M34.16 0 C43.52 0.59, 46.45 5.56, 45.55 11.39 M45.55 11.39 C43.93 54.03, 42.87 94.29, 45.55 128.99 M45.55 11.39 C46.85 54.08, 46.17 95.54, 45.55 128.99 M45.55 128.99 C46.06 138.28, 42.11 138.63, 34.16 140.38 M45.55 128.99 C44.01 137.07, 42.36 139.53, 34.16 140.38 M34.16 140.38 C28.25 138.69, 21.09 142.08, 11.39 140.38 M34.16 140.38 C30.2 140.24, 24.41 140.85, 11.39 140.38 M11.39 140.38 C1.89 142.24, -0.12 137.27, 0 128.99 M11.39 140.38 C3.18 139.79, 0.87 135.3, 0 128.99 M0 128.99 C-1.53 83.45, -1.68 38.25, 0 11.39 M0 128.99 C1.55 99.65, -0.01 70.65, 0 11.39 M0 11.39 C-1.58 2.72, 4.16 1.59, 11.39 0 M0 11.39 C1.48 1.71, 4.34 -0.72, 11.39 0" stroke="#1971c2" stroke-width="2" fill="none"></path></g><g stroke-linecap="round" transform="translate(10 254.51953099999997) rotate(0 22.775390625 70.1875)"><path d="M11.39 0 C17.6 0.27, 25.62 -1.21, 34.16 0 M11.39 0 C18.52 -0.3, 24.42 0.25, 34.16 0 M34.16 0 C43.69 1.46, 47.08 4.31, 45.55 11.39 M34.16 0 C42.66 1.77, 46.76 1.64, 45.55 11.39 M45.55 11.39 C43.67 42.53, 46.46 75.55, 45.55 128.99 M45.55 11.39 C45.47 43.55, 46.13 77.79, 45.55 128.99 M45.55 128.99 C45.9 134.83, 40.41 140.8, 34.16 140.38 M45.55 128.99 C46.16 135.73, 40.92 139.02, 34.16 140.38 M34.16 140.38 C24.56 141.7, 15.14 140.65, 11.39 140.38 M34.16 140.38 C25.83 140.7, 17.53 141.25, 11.39 140.38 M11.39 140.38 C3.68 141.07, -0.54 136.07, 0 128.99 M11.39 140.38 C4.66 139.1, 1.82 138.7, 0 128.99 M0 128.99 C-0.33 87.8, -0.81 48.72, 0 11.39 M0 128.99 C-1.72 83.38, -1.84 38.01, 0 11.39 M0 11.39 C0.37 5.38, 5.08 -1.82, 11.39 0 M0 11.39 C0.55 3.07, 2.46 1.65, 11.39 0" stroke="#1971c2" stroke-width="2" fill="none"></path></g><g stroke-linecap="round"><g stroke-opacity="0.4" fill-opacity="0.4" transform="translate(10.869140625 289.09374974999986) rotate(0 22.763671875 0)"><path d="M0 0 C7.59 0, 37.94 0, 45.53 0 M0 0 C7.59 0, 37.94 0, 45.53 0" stroke="#1971c2" stroke-width="1" fill="none"></path></g></g><mask></mask><g stroke-linecap="round"><g stroke-opacity="0.4" fill-opacity="0.4" transform="translate(10.791015625 321.25390599999986) rotate(0 23.10546875 0)"><path d="M0 0 C7.7 0, 38.51 0, 46.21 0 M0 0 C7.7 0, 38.51 0, 46.21 0" stroke="#1971c2" stroke-width="1" fill="none"></path></g></g><mask></mask><g stroke-linecap="round"><g stroke-opacity="0.4" fill-opacity="0.4" transform="translate(11.966796875 354.13671849999986) rotate(0 22.54296875 0)"><path d="M0 0 C7.51 0, 37.57 0, 45.09 0 M0 0 C7.51 0, 37.57 0, 45.09 0" stroke="#1971c2" stroke-width="1" fill="none"></path></g></g><mask></mask><g stroke-linecap="round" transform="translate(80.84179575000002 254.78515599999997) rotate(0 22.775390625 70.1875)"><path d="M11.39 0 C18.2 -0.88, 28.94 1.68, 34.16 0 M11.39 0 C17.56 0.48, 24.6 0.02, 34.16 0 M34.16 0 C42.32 0.25, 45.5 1.81, 45.55 11.39 M34.16 0 C40.76 -1.35, 47.13 4.94, 45.55 11.39 M45.55 11.39 C43.3 58.79, 46.33 103.34, 45.55 128.99 M45.55 11.39 C46.44 43.78, 46.39 75.58, 45.55 128.99 M45.55 128.99 C45.66 137.63, 39.83 139.64, 34.16 140.38 M45.55 128.99 C44.94 135.48, 42.79 138.92, 34.16 140.38 M34.16 140.38 C30.23 142.44, 24.45 142.01, 11.39 140.38 M34.16 140.38 C28.08 140.11, 21.57 140.86, 11.39 140.38 M11.39 140.38 C4.14 138.75, 1.28 137.14, 0 128.99 M11.39 140.38 C5.29 139.54, 1.11 135.78, 0 128.99 M0 128.99 C2.12 103.78, 0.02 78.92, 0 11.39 M0 128.99 C-0.17 91.45, 1.04 55.96, 0 11.39 M0 11.39 C-1.21 4.41, 2.29 -0.95, 11.39 0 M0 11.39 C-0.93 1.72, 6.04 2, 11.39 0" stroke="#1971c2" stroke-width="2" fill="none"></path></g><g stroke-linecap="round" transform="translate(80.59570200000002 254.51953099999997) rotate(0 22.775390625 70.1875)"><path d="M11.39 0 C19.19 1.72, 23.34 -0.7, 34.16 0 M11.39 0 C16.26 -0.27, 20.81 0.07, 34.16 0 M34.16 0 C41.7 -1.98, 44.69 2.62, 45.55 11.39 M34.16 0 C43.33 1.15, 47.61 2.84, 45.55 11.39 M45.55 11.39 C45.78 38.16, 43.98 64.34, 45.55 128.99 M45.55 11.39 C47.22 47.22, 46.54 83.82, 45.55 128.99 M45.55 128.99 C43.63 135.84, 41.22 139.42, 34.16 140.38 M45.55 128.99 C46.59 135.12, 40.13 140.73, 34.16 140.38 M34.16 140.38 C26.48 142.07, 16.44 141.9, 11.39 140.38 M34.16 140.38 C26.08 140.76, 20.01 139.49, 11.39 140.38 M11.39 140.38 C5.07 140.94, 1.3 135.85, 0 128.99 M11.39 140.38 C4.91 139.57, -2.14 134.74, 0 128.99 M0 128.99 C-1.62 98.22, -0.42 69.24, 0 11.39 M0 128.99 C1.34 84.76, 0.3 39.34, 0 11.39 M0 11.39 C-1.5 2.85, 2.99 -1.81, 11.39 0 M0 11.39 C2.24 5.79, 4.72 1.88, 11.39 0" stroke="#1971c2" stroke-width="2" fill="none"></path></g><g stroke-linecap="round"><g stroke-opacity="0.4" fill-opacity="0.4" transform="translate(81.46484262500002 289.09374974999986) rotate(0 22.763671875 0)"><path d="M0 0 C7.59 0, 37.94 0, 45.53 0 M0 0 C7.59 0, 37.94 0, 45.53 0" stroke="#1971c2" stroke-width="1" fill="none"></path></g></g><mask></mask><g stroke-linecap="round"><g stroke-opacity="0.4" fill-opacity="0.4" transform="translate(81.38671762500002 321.25390599999986) rotate(0 23.10546875 0)"><path d="M0 0 C7.7 0, 38.51 0, 46.21 0 M0 0 C7.7 0, 38.51 0, 46.21 0" stroke="#1971c2" stroke-width="1" fill="none"></path></g></g><mask></mask><g stroke-linecap="round"><g stroke-opacity="0.4" fill-opacity="0.4" transform="translate(82.56249887500002 354.13671849999986) rotate(0 22.54296875 0)"><path d="M0 0 C7.51 0, 37.57 0, 45.09 0 M0 0 C7.51 0, 37.57 0, 45.09 0" stroke="#1971c2" stroke-width="1" fill="none"></path></g></g><mask></mask><g stroke-linecap="round" transform="translate(151.91720875000004 254.78515599999997) rotate(0 22.77539062499997 70.1875)"><path d="M11.39 0 C16.47 0.61, 22.91 -0.36, 34.16 0 M11.39 0 C16.98 -1.12, 20.28 -0.68, 34.16 0 M34.16 0 C40.53 -0.37, 44.73 2.51, 45.55 11.39 M34.16 0 C40.12 0.69, 46.79 2.65, 45.55 11.39 M45.55 11.39 C46.06 36.87, 43.83 64.84, 45.55 128.99 M45.55 11.39 C46.4 41.18, 46.34 72.77, 45.55 128.99 M45.55 128.99 C46.12 138.12, 42.21 139.23, 34.16 140.38 M45.55 128.99 C44.58 138.17, 41.16 138.71, 34.16 140.38 M34.16 140.38 C25.24 141.84, 16.67 141.25, 11.39 140.38 M34.16 140.38 C25.71 140.41, 17.93 139.35, 11.39 140.38 M11.39 140.38 C4.76 142.11, 1.2 136.95, 0 128.99 M11.39 140.38 C4.43 142.23, 1.27 135.47, 0 128.99 M0 128.99 C1.74 105.91, 2.91 79.89, 0 11.39 M0 128.99 C0.92 100.13, 0.35 70.74, 0 11.39 M0 11.39 C0.88 2.37, 4.38 0.52, 11.39 0 M0 11.39 C0.44 4.1, 4 2.27, 11.39 0" stroke="#1971c2" stroke-width="2" fill="none"></path></g><g stroke-linecap="round" transform="translate(151.67111500000004 254.51953099999997) rotate(0 22.77539062499997 70.1875)"><path d="M11.39 0 C21.49 -0.3, 26.18 1.6, 34.16 0 M11.39 0 C19.28 -0.27, 28.54 0.02, 34.16 0 M34.16 0 C40.93 -1.28, 44.13 4.4, 45.55 11.39 M34.16 0 C42.99 -1.15, 43.97 2.67, 45.55 11.39 M45.55 11.39 C45.04 46.22, 45.38 83.3, 45.55 128.99 M45.55 11.39 C46.89 47.5, 46.59 83.66, 45.55 128.99 M45.55 128.99 C46.01 135.44, 40.91 141.76, 34.16 140.38 M45.55 128.99 C44.95 134.91, 43.78 140.92, 34.16 140.38 M34.16 140.38 C28.73 141.55, 24.03 138.82, 11.39 140.38 M34.16 140.38 C28.5 139.5, 23.38 141.28, 11.39 140.38 M11.39 140.38 C4.99 140.75, 0.56 138.19, 0 128.99 M11.39 140.38 C5.07 139.27, -2.15 134.53, 0 128.99 M0 128.99 C1.45 86.16, -1.47 43.16, 0 11.39 M0 128.99 C-0.6 88.34, 0.22 47.36, 0 11.39 M0 11.39 C0.58 4.32, 4.18 0.27, 11.39 0 M0 11.39 C0.2 6.07, 2.36 -1.01, 11.39 0" stroke="#1971c2" stroke-width="2" fill="none"></path></g><g stroke-linecap="round"><g stroke-opacity="0.4" fill-opacity="0.4" transform="translate(152.54025562500004 289.09374974999986) rotate(0 22.76367187499997 0)"><path d="M0 0 C7.59 0, 37.94 0, 45.53 0 M0 0 C7.59 0, 37.94 0, 45.53 0" stroke="#1971c2" stroke-width="1" fill="none"></path></g></g><mask></mask><g stroke-linecap="round"><g stroke-opacity="0.4" fill-opacity="0.4" transform="translate(152.46213062500004 321.25390599999986) rotate(0 23.10546874999997 0)"><path d="M0 0 C7.7 0, 38.51 0, 46.21 0 M0 0 C7.7 0, 38.51 0, 46.21 0" stroke="#1971c2" stroke-width="1" fill="none"></path></g></g><mask></mask><g stroke-linecap="round"><g stroke-opacity="0.4" fill-opacity="0.4" transform="translate(153.63791187500004 354.13671849999986) rotate(0 22.54296874999997 0)"><path d="M0 0 C7.51 0, 37.57 0, 45.09 0 M0 0 C7.51 0, 37.57 0, 45.09 0" stroke="#1971c2" stroke-width="1" fill="none"></path></g></g><mask></mask><g stroke-linecap="round" transform="translate(309.73568175 254.78515599999997) rotate(0 22.775390625 70.1875)"><path d="M11.39 0 C14.85 0.31, 24.02 1.18, 34.16 0 M11.39 0 C16.34 0.06, 22.61 0.05, 34.16 0 M34.16 0 C43.06 1.2, 44.22 2.14, 45.55 11.39 M34.16 0 C41.53 1.02, 45.62 2.99, 45.55 11.39 M45.55 11.39 C43.68 37.85, 44.02 64.26, 45.55 128.99 M45.55 11.39 C45.16 46.66, 43.56 83.57, 45.55 128.99 M45.55 128.99 C46.01 137.17, 42.31 142.22, 34.16 140.38 M45.55 128.99 C45.55 135.6, 42.72 138.87, 34.16 140.38 M34.16 140.38 C27.48 140.19, 24.13 139.71, 11.39 140.38 M34.16 140.38 C25.79 140.48, 16.2 139.7, 11.39 140.38 M11.39 140.38 C4.08 140.95, 1.24 136.33, 0 128.99 M11.39 140.38 C5.64 141.11, -1.52 138.37, 0 128.99 M0 128.99 C0.27 101.6, 0.99 69.61, 0 11.39 M0 128.99 C-0.37 87.43, -0.84 47.87, 0 11.39 M0 11.39 C-0.52 5.52, 5.46 -0.42, 11.39 0 M0 11.39 C-0.04 2.17, 5.57 -0.39, 11.39 0" stroke="#1971c2" stroke-width="2" fill="none"></path></g><g stroke-linecap="round" transform="translate(309.489588 254.51953099999997) rotate(0 22.775390625 70.1875)"><path d="M11.39 0 C20.41 1.17, 24.28 1.44, 34.16 0 M11.39 0 C20.26 0.15, 28.67 0.55, 34.16 0 M34.16 0 C40.43 -1.65, 45.36 4.69, 45.55 11.39 M34.16 0 C41.82 -0.8, 43.99 3.15, 45.55 11.39 M45.55 11.39 C43.45 42.93, 44.7 76.09, 45.55 128.99 M45.55 11.39 C45.37 53.33, 46.54 93.61, 45.55 128.99 M45.55 128.99 C46.11 138.42, 41.76 139.52, 34.16 140.38 M45.55 128.99 C46.52 135.07, 40.22 139.63, 34.16 140.38 M34.16 140.38 C26.04 139.48, 18.54 140.88, 11.39 140.38 M34.16 140.38 C27.95 139.83, 22.33 140.7, 11.39 140.38 M11.39 140.38 C5.04 140.13, 1.6 137.22, 0 128.99 M11.39 140.38 C2.27 142.16, -1.16 137.55, 0 128.99 M0 128.99 C1.03 96.73, 0.51 67.29, 0 11.39 M0 128.99 C-0.57 89.1, -0.89 48.61, 0 11.39 M0 11.39 C1.66 3.38, 3.76 -1.41, 11.39 0 M0 11.39 C1.77 3.41, 4.28 1.18, 11.39 0" stroke="#1971c2" stroke-width="2" fill="none"></path></g><g stroke-linecap="round"><g stroke-opacity="0.4" fill-opacity="0.4" transform="translate(310.358728625 289.09374974999986) rotate(0 22.763671875 0)"><path d="M0 0 C7.59 0, 37.94 0, 45.53 0 M0 0 C7.59 0, 37.94 0, 45.53 0" stroke="#1971c2" stroke-width="1" fill="none"></path></g></g><mask></mask><g stroke-linecap="round"><g stroke-opacity="0.4" fill-opacity="0.4" transform="translate(310.280603625 321.25390599999986) rotate(0 23.10546875 0)"><path d="M0 0 C7.7 0, 38.51 0, 46.21 0 M0 0 C7.7 0, 38.51 0, 46.21 0" stroke="#1971c2" stroke-width="1" fill="none"></path></g></g><mask></mask><g stroke-linecap="round"><g stroke-opacity="0.4" fill-opacity="0.4" transform="translate(311.456384875 354.13671849999986) rotate(0 22.54296875 0)"><path d="M0 0 C7.51 0, 37.57 0, 45.09 0 M0 0 C7.51 0, 37.57 0, 45.09 0" stroke="#1971c2" stroke-width="1" fill="none"></path></g></g><mask></mask><g stroke-linecap="round" transform="translate(382.21920075 254.7851560000001) rotate(0 22.775390625 70.1875)"><path d="M11.39 0 C16.03 1.21, 24.89 -1.57, 34.16 0 M11.39 0 C16.41 -0.56, 21.88 0.25, 34.16 0 M34.16 0 C40.26 1.63, 43.63 4.7, 45.55 11.39 M34.16 0 C40.69 -2.24, 44.98 3.83, 45.55 11.39 M45.55 11.39 C44.65 43.33, 45.53 70.23, 45.55 128.99 M45.55 11.39 C45.57 49.32, 45.86 87.82, 45.55 128.99 M45.55 128.99 C44.96 135.81, 40.25 140.46, 34.16 140.38 M45.55 128.99 C44.78 138.68, 43.82 140.03, 34.16 140.38 M34.16 140.38 C25.27 141.53, 20.58 139.44, 11.39 140.38 M34.16 140.38 C26.96 139.82, 18.95 140.36, 11.39 140.38 M11.39 140.38 C5.4 140.77, 1.42 135.42, 0 128.99 M11.39 140.38 C5.76 141.39, 0.68 137.23, 0 128.99 M0 128.99 C0.55 101.49, -2.2 75.77, 0 11.39 M0 128.99 C0.04 84.93, 0.33 39.24, 0 11.39 M0 11.39 C0.65 1.81, 2.27 1.39, 11.39 0 M0 11.39 C0.73 4.85, 6.08 -2.28, 11.39 0" stroke="#1971c2" stroke-width="2" fill="none"></path></g><g stroke-linecap="round" transform="translate(381.973107 254.5195310000001) rotate(0 22.775390625 70.1875)"><path d="M11.39 0 C20.99 -1.54, 28.01 -0.57, 34.16 0 M11.39 0 C18.47 0.47, 26.67 0.92, 34.16 0 M34.16 0 C39.84 0.91, 44.62 1.85, 45.55 11.39 M34.16 0 C41.18 0.04, 44.58 1.89, 45.55 11.39 M45.55 11.39 C46.55 41.92, 46.04 75.44, 45.55 128.99 M45.55 11.39 C46.68 40.13, 45.71 67.28, 45.55 128.99 M45.55 128.99 C44.04 136.66, 41.09 142.2, 34.16 140.38 M45.55 128.99 C47.62 136.24, 42.68 141.68, 34.16 140.38 M34.16 140.38 C28.92 139.53, 20.63 141.09, 11.39 140.38 M34.16 140.38 C29.41 140.46, 24.89 140.49, 11.39 140.38 M11.39 140.38 C5.22 139.21, 1.71 137.46, 0 128.99 M11.39 140.38 C4.47 141.03, -1.63 138.71, 0 128.99 M0 128.99 C-2.08 103.15, 0.66 75.54, 0 11.39 M0 128.99 C0.33 93.33, 0.61 56.79, 0 11.39 M0 11.39 C-1.53 5.18, 4.43 0.91, 11.39 0 M0 11.39 C2.28 1.52, 5.01 -0.31, 11.39 0" stroke="#1971c2" stroke-width="2" fill="none"></path></g><g stroke-linecap="round"><g stroke-opacity="0.4" fill-opacity="0.4" transform="translate(382.842247625 289.09374975) rotate(0 22.763671875 0)"><path d="M0 0 C7.59 0, 37.94 0, 45.53 0 M0 0 C7.59 0, 37.94 0, 45.53 0" stroke="#1971c2" stroke-width="1" fill="none"></path></g></g><mask></mask><g stroke-linecap="round"><g stroke-opacity="0.4" fill-opacity="0.4" transform="translate(382.764122625 321.253906) rotate(0 23.10546875 0)"><path d="M0 0 C7.7 0, 38.51 0, 46.21 0 M0 0 C7.7 0, 38.51 0, 46.21 0" stroke="#1971c2" stroke-width="1" fill="none"></path></g></g><mask></mask><g stroke-linecap="round"><g stroke-opacity="0.4" fill-opacity="0.4" transform="translate(383.939903875 354.1367185) rotate(0 22.54296875 0)"><path d="M0 0 C7.51 0, 37.57 0, 45.09 0 M0 0 C7.51 0, 37.57 0, 45.09 0" stroke="#1971c2" stroke-width="1" fill="none"></path></g></g><mask></mask><g transform="translate(493.22893974926774 112.65624937500002) rotate(0 41.8399658203125 10)"><text x="0" y="14.016" font-family="Virgil, Segoe UI Emoji" font-size="16px" fill="#1e1e1e" text-anchor="start" style="white-space: pre;" direction="ltr" dominant-baseline="alphabetic">Embeddings</text></g><g transform="translate(493.22893974926774 304.839843625) rotate(0 61.08795928955078 20)"><text x="0" y="14.016" font-family="Virgil, Segoe UI Emoji" font-size="16px" fill="#1e1e1e" text-anchor="start" style="white-space: pre;" direction="ltr" dominant-baseline="alphabetic">Binary positions</text><text x="0" y="34.016" font-family="Virgil, Segoe UI Emoji" font-size="16px" fill="#1e1e1e" text-anchor="start" style="white-space: pre;" direction="ltr" dominant-baseline="alphabetic">vectors</text></g><g stroke-linecap="round"><g transform="translate(217.95180812499996 324.83984325) rotate(0 33.18015173189343 -0.723796059490212)"><path d="M0.25 -0.56 C11.11 -0.84, 55.11 -0.99, 66.11 -0.78" stroke="#1e1e1e" stroke-width="2.5" fill="none" stroke-dasharray="8 10"></path></g></g><mask></mask></svg>