<svg version="1.1" xmlns="http://www.w3.org/2000/svg" viewBox="0 0 464.53728989257826 67.05273462499963" width="929.0745797851565" height="134.10546924999926">
  <!-- svg-source:excalidraw -->

  <defs>
    <style class="style-fonts">
      @font-face {
        font-family: "Virgil";
        src: url("/fonts/Virgil.woff2");
      }
      @font-face {
        font-family: "Cascadia";
        src: url("/fonts/Cascadia.woff2");
      }
      @font-face {
        font-family: "Assistant";
        src: url("/fonts/Assistant-Regular.woff2");
      }
    </style>

  </defs>
  <rect x="0" y="0" width="464.53728989257826" height="67.05273462499963" fill="#ffffff"></rect><g stroke-linecap="round" transform="translate(57.67773437500023 -36.15624975000037) rotate(270 22.775390625 70.1875)"><path d="M11.39 0 C14.63 -0.44, 22.27 -1.59, 34.16 0 M11.39 0 C18.53 -0.93, 25.36 -0.87, 34.16 0 M34.16 0 C43.67 1.23, 43.61 3.79, 45.55 11.39 M34.16 0 C42 -1.09, 47.17 4.42, 45.55 11.39 M45.55 11.39 C46.91 56.14, 44 97.83, 45.55 128.99 M45.55 11.39 C43.47 43.24, 43.45 76.94, 45.55 128.99 M45.55 128.99 C43.55 135.26, 42.93 141.13, 34.16 140.38 M45.55 128.99 C46.6 137.25, 43.91 138.19, 34.16 140.38 M34.16 140.38 C26.62 138.42, 21.45 141.63, 11.39 140.38 M34.16 140.38 C28.07 140.79, 23.68 139.34, 11.39 140.38 M11.39 140.38 C3.95 139.24, -1.27 137.01, 0 128.99 M11.39 140.38 C5.18 141.41, -1.78 137.04, 0 128.99 M0 128.99 C1.22 85.96, 0.25 42.18, 0 11.39 M0 128.99 C0.93 100.73, -0.65 72.32, 0 11.39 M0 11.39 C-1.1 3.88, 4.71 1.8, 11.39 0 M0 11.39 C1.33 3.85, 5.23 -0.45, 11.39 0" stroke="#1e1e1e" stroke-width="2" fill="none"></path></g><g stroke-linecap="round" transform="translate(57.412109375 -35.91015600000037) rotate(270 22.775390625 70.1875)"><path d="M11.39 0 C20.73 -1.45, 27.24 -1.06, 34.16 0 M11.39 0 C18.18 -0.68, 25.56 0.83, 34.16 0 M34.16 0 C39.81 0, 45.76 2.85, 45.55 11.39 M34.16 0 C43.38 0.62, 47.08 4.02, 45.55 11.39 M45.55 11.39 C44.61 54.93, 45.8 96.01, 45.55 128.99 M45.55 11.39 C43.42 36.46, 43.41 59.5, 45.55 128.99 M45.55 128.99 C46.72 137.34, 42.67 140.96, 34.16 140.38 M45.55 128.99 C47.71 134.39, 40.67 138.19, 34.16 140.38 M34.16 140.38 C27.43 141.55, 22.02 139.64, 11.39 140.38 M34.16 140.38 C30.03 139.67, 24.37 139.95, 11.39 140.38 M11.39 140.38 C2.52 140.81, 1.21 137.48, 0 128.99 M11.39 140.38 C2.01 140.84, 1.54 138.04, 0 128.99 M0 128.99 C-0.16 94.09, -2.27 59.8, 0 11.39 M0 128.99 C-1.7 105.68, -1.33 80.74, 0 11.39 M0 11.39 C0.91 5.59, 4.96 0.05, 11.39 0 M0 11.39 C1.44 3.35, 2.09 -1.4, 11.39 0" stroke="#1e1e1e" stroke-width="2" fill="none"></path></g><g stroke-linecap="round"><g stroke-opacity="0.4" fill-opacity="0.4" transform="translate(21.810546875000455 33.41992212499986) rotate(270 22.763671875 0)"><path d="M0 0 C7.59 0, 37.94 0, 45.53 0 M0 0 C7.59 0, 37.94 0, 45.53 0" stroke="#1e1e1e" stroke-width="1" fill="none"></path></g></g><mask></mask><g stroke-linecap="round"><g stroke-opacity="0.4" fill-opacity="0.4" transform="translate(53.62890625 33.15625024999963) rotate(270 23.10546875 0)"><path d="M0 0 C7.7 0, 38.51 0, 46.21 0 M0 0 C7.7 0, 38.51 0, 46.21 0" stroke="#1e1e1e" stroke-width="1" fill="none"></path></g></g><mask></mask><g stroke-linecap="round"><g stroke-opacity="0.4" fill-opacity="0.4" transform="translate(87.07421874999932 32.542969000000085) rotate(270 22.54296875000003 0)"><path d="M0 0 C7.51 0, 37.57 0, 45.09 0 M0 0 C7.51 0, 37.57 0, 45.09 0" stroke="#1e1e1e" stroke-width="1" fill="none"></path></g></g><mask></mask><g stroke-linecap="round" transform="translate(231.64571262500016 -36.15625000000023) rotate(270 22.775390625 70.1875)"><path d="M11.39 0 C17.01 1.88, 27.44 -1.99, 34.16 0 M11.39 0 C18.92 0.38, 25.71 0.21, 34.16 0 M34.16 0 C43.11 1.24, 47.22 2.13, 45.55 11.39 M34.16 0 C42.08 -0.56, 43.39 1.66, 45.55 11.39 M45.55 11.39 C46.23 33.24, 43.55 60.27, 45.55 128.99 M45.55 11.39 C47.03 50.18, 45.62 89.92, 45.55 128.99 M45.55 128.99 C44.42 134.79, 39.93 139.19, 34.16 140.38 M45.55 128.99 C47.14 135.38, 41.14 138.46, 34.16 140.38 M34.16 140.38 C26.68 140.71, 21.44 139.29, 11.39 140.38 M34.16 140.38 C26.06 140.68, 20.17 141.11, 11.39 140.38 M11.39 140.38 C3.64 142.34, 0.1 137.58, 0 128.99 M11.39 140.38 C3.18 139.1, -0.52 134.4, 0 128.99 M0 128.99 C1.09 84.85, -0.5 43.82, 0 11.39 M0 128.99 C-0.06 82.95, -1.42 36.68, 0 11.39 M0 11.39 C-0.93 5.08, 4.66 -1.79, 11.39 0 M0 11.39 C-1.43 3.8, 3.3 -1.95, 11.39 0" stroke="#1971c2" stroke-width="2" fill="none"></path></g><g stroke-linecap="round" transform="translate(231.38008762500016 -35.91015625) rotate(270 22.775390625 70.1875)"><path d="M11.39 0 C19.87 -2.16, 25.9 -0.01, 34.16 0 M11.39 0 C17.8 0.04, 23.57 0.56, 34.16 0 M34.16 0 C43.43 -1.67, 45.84 3.31, 45.55 11.39 M34.16 0 C39.59 -2.13, 43.32 2.45, 45.55 11.39 M45.55 11.39 C45.04 36.17, 47.11 59.52, 45.55 128.99 M45.55 11.39 C46.18 49.17, 46.09 87.96, 45.55 128.99 M45.55 128.99 C43.73 135.39, 43.13 139.33, 34.16 140.38 M45.55 128.99 C44.94 134.66, 40.71 141.76, 34.16 140.38 M34.16 140.38 C24.37 139.12, 17.28 141.6, 11.39 140.38 M34.16 140.38 C26.97 141.06, 18.37 141.4, 11.39 140.38 M11.39 140.38 C3.9 141.37, -0.54 135.47, 0 128.99 M11.39 140.38 C3.27 138.2, 1.52 137.71, 0 128.99 M0 128.99 C-0.9 105.45, 0.81 81.24, 0 11.39 M0 128.99 C-1.48 92.82, -1.2 58.52, 0 11.39 M0 11.39 C0.87 2.01, 2.55 0, 11.39 0 M0 11.39 C-0.5 1.85, 2.82 2.29, 11.39 0" stroke="#1971c2" stroke-width="2" fill="none"></path></g><g stroke-linecap="round"><g stroke-opacity="0.4" fill-opacity="0.4" transform="translate(195.77852512500039 33.41992187499977) rotate(270 22.763671875 0)"><path d="M0 0 C7.59 0, 37.94 0, 45.53 0 M0 0 C7.59 0, 37.94 0, 45.53 0" stroke="#1971c2" stroke-width="1" fill="none"></path></g></g><mask></mask><g stroke-linecap="round"><g stroke-opacity="0.4" fill-opacity="0.4" transform="translate(227.59688450000039 33.156249999999545) rotate(270 23.10546875 0)"><path d="M0 0 C7.7 0, 38.51 0, 46.21 0 M0 0 C7.7 0, 38.51 0, 46.21 0" stroke="#1971c2" stroke-width="1" fill="none"></path></g></g><mask></mask><g stroke-linecap="round"><g stroke-opacity="0.4" fill-opacity="0.4" transform="translate(261.04219700000016 32.54296875) rotate(270 22.54296875 0)"><path d="M0 0 C7.51 0, 37.57 0, 45.09 0 M0 0 C7.51 0, 37.57 0, 45.09 0" stroke="#1971c2" stroke-width="1" fill="none"></path></g></g><mask></mask><g transform="translate(158.55430112500022 16.026367062499617) rotate(0 8.75 17.5)"><text x="0" y="24.528" font-family="Virgil, Segoe UI Emoji" font-size="28px" fill="#1e1e1e" text-anchor="start" style="white-space: pre;" direction="ltr" dominant-baseline="alphabetic">+</text></g><g transform="translate(359.03335312500013 23.57714806249976) rotate(0 47.75196838378906 10)"><text x="0" y="14.016" font-family="Virgil, Segoe UI Emoji" font-size="16px" fill="#1e1e1e" text-anchor="start" style="white-space: pre;" direction="ltr" dominant-baseline="alphabetic">add vectors</text></g></svg>