<svg version="1.1" xmlns="http://www.w3.org/2000/svg" viewBox="0 0 487.6738116389383 265.1562496818192" width="975.3476232778766" height="530.3124993636384">
  <!-- svg-source:excalidraw -->

  <defs>
    <style class="style-fonts">
      @font-face {
        font-family: "Virgil";
        src: url("/fonts/Virgil.woff2");
      }
      @font-face {
        font-family: "Cascadia";
        src: url("/fonts/Cascadia.woff2");
      }
      @font-face {
        font-family: "Assistant";
        src: url("/fonts/Assistant-Regular.woff2");
      }
    </style>

  </defs>
  <rect x="0" y="0" width="487.6738116389383" height="265.1562496818192" fill="#ffffff"></rect><g transform="translate(21.20637631818181 11.22869268181853) rotate(0 18.157989501953125 17.5)"><text x="0" y="24.528" font-family="Virgil, Segoe UI Emoji" font-size="28px" fill="#1971c2" text-anchor="start" style="white-space: pre;" direction="ltr" dominant-baseline="alphabetic">w0</text></g><g transform="translate(104.17533050000009 10) rotate(0 12.319992065429688 17.5)"><text x="0" y="24.528" font-family="Virgil, Segoe UI Emoji" font-size="28px" fill="#1971c2" text-anchor="start" style="white-space: pre;" direction="ltr" dominant-baseline="alphabetic">w1</text></g><g transform="translate(199.7692654545454 11.509232818182) rotate(0 18.493988037109375 17.5)"><text x="0" y="24.528" font-family="Virgil, Segoe UI Emoji" font-size="28px" fill="#1971c2" text-anchor="start" style="white-space: pre;" direction="ltr" dominant-baseline="alphabetic">w2</text></g><g transform="translate(293.94122672727275 10.000000045454726) rotate(0 18.05998992919922 17.5)"><text x="0" y="24.528" font-family="Virgil, Segoe UI Emoji" font-size="28px" fill="#1971c2" text-anchor="start" style="white-space: pre;" direction="ltr" dominant-baseline="alphabetic">w3</text></g><g stroke-linecap="round" transform="translate(10.24609428977277 70.63778413636487) rotate(0 22.775390625 70.1875)"><path d="M11.39 0 C17.71 -1.5, 23.87 -1.07, 34.16 0 M11.39 0 C19.64 0.92, 27.96 -0.19, 34.16 0 M34.16 0 C43.13 1.41, 47.37 1.82, 45.55 11.39 M34.16 0 C40.65 1.04, 47.71 4.16, 45.55 11.39 M45.55 11.39 C45.96 50.35, 46.28 92.6, 45.55 128.99 M45.55 11.39 C44.98 45.76, 45.59 78.01, 45.55 128.99 M45.55 128.99 C46.62 137.71, 39.99 139.87, 34.16 140.38 M45.55 128.99 C43.92 138.13, 39.81 142.55, 34.16 140.38 M34.16 140.38 C29.35 140.47, 20.86 140.03, 11.39 140.38 M34.16 140.38 C28.63 141.26, 22.7 139.66, 11.39 140.38 M11.39 140.38 C3.34 140.09, -1.28 138.09, 0 128.99 M11.39 140.38 C5.05 140.16, -1.89 137.35, 0 128.99 M0 128.99 C-0.47 88.78, -1.52 51.71, 0 11.39 M0 128.99 C-0.97 99.53, -1.25 69, 0 11.39 M0 11.39 C0.72 2.62, 3.69 -1.19, 11.39 0 M0 11.39 C1.48 4.7, 4.03 -0.6, 11.39 0" stroke="#1e1e1e" stroke-width="2" fill="none"></path></g><g stroke-linecap="round" transform="translate(10.00000053977277 70.37215913636487) rotate(0 22.775390625 70.1875)"><path d="M11.39 0 C20.36 -0.88, 26.36 0.55, 34.16 0 M11.39 0 C17.31 -0.52, 22.61 0.53, 34.16 0 M34.16 0 C43.58 -1.98, 44.59 4.7, 45.55 11.39 M34.16 0 C43.91 0.37, 46.43 5.92, 45.55 11.39 M45.55 11.39 C44.79 53.42, 44.85 92.49, 45.55 128.99 M45.55 11.39 C44.5 41.75, 45.19 73.52, 45.55 128.99 M45.55 128.99 C43.79 136.07, 40.33 141.72, 34.16 140.38 M45.55 128.99 C43.6 138.75, 41.29 141.86, 34.16 140.38 M34.16 140.38 C27.1 140.08, 20.43 140.05, 11.39 140.38 M34.16 140.38 C25.76 139.61, 16.04 140.39, 11.39 140.38 M11.39 140.38 C2.51 141.88, 1.09 136.4, 0 128.99 M11.39 140.38 C1.91 141.14, 0.65 137.35, 0 128.99 M0 128.99 C-1.09 86.51, -0.8 44.63, 0 11.39 M0 128.99 C-0.15 91.14, 1.19 51.25, 0 11.39 M0 11.39 C-0.11 2.61, 5.08 0.79, 11.39 0 M0 11.39 C0.24 3.2, 2.28 2.09, 11.39 0" stroke="#1e1e1e" stroke-width="2" fill="none"></path></g><g stroke-linecap="round"><g stroke-opacity="0.4" fill-opacity="0.4" transform="translate(10.86914116477277 104.94637788636442) rotate(0 22.763671875 0)"><path d="M0 0 C7.59 0, 37.94 0, 45.53 0 M0 0 C7.59 0, 37.94 0, 45.53 0" stroke="#1e1e1e" stroke-width="1" fill="none"></path></g></g><mask></mask><g stroke-linecap="round"><g stroke-opacity="0.4" fill-opacity="0.4" transform="translate(10.79101616477277 137.10653413636442) rotate(0 23.10546875 0)"><path d="M0 0 C7.7 0, 38.51 0, 46.21 0 M0 0 C7.7 0, 38.51 0, 46.21 0" stroke="#1e1e1e" stroke-width="1" fill="none"></path></g></g><mask></mask><g stroke-linecap="round"><g stroke-opacity="0.4" fill-opacity="0.4" transform="translate(11.96679741477277 169.98934663636442) rotate(0 22.54296875 0)"><path d="M0 0 C7.51 0, 37.57 0, 45.09 0 M0 0 C7.51 0, 37.57 0, 45.09 0" stroke="#1e1e1e" stroke-width="1" fill="none"></path></g></g><mask></mask><g stroke-linecap="round" transform="translate(103.97656269886363 67.91406209091042) rotate(0 22.775390625 70.1875)"><path d="M11.39 0 C19.54 0.89, 30.46 -1.99, 34.16 0 M11.39 0 C18.51 0.63, 23.82 -0.51, 34.16 0 M34.16 0 C43.7 1.05, 44.35 4.69, 45.55 11.39 M34.16 0 C40.32 -1.99, 44.77 3.95, 45.55 11.39 M45.55 11.39 C45.08 38.77, 47.63 66.82, 45.55 128.99 M45.55 11.39 C45.82 56.72, 47.34 104.18, 45.55 128.99 M45.55 128.99 C43.78 134.75, 43.2 139.54, 34.16 140.38 M45.55 128.99 C45.62 136.72, 40.23 141.8, 34.16 140.38 M34.16 140.38 C26.43 142.18, 20.79 140.09, 11.39 140.38 M34.16 140.38 C25.59 140.46, 17.04 141.43, 11.39 140.38 M11.39 140.38 C5.48 141.32, -0.49 136.74, 0 128.99 M11.39 140.38 C3.67 140.8, -1.53 137.52, 0 128.99 M0 128.99 C0.99 84.63, -0.49 41.32, 0 11.39 M0 128.99 C-1.25 83.86, 0.07 39.73, 0 11.39 M0 11.39 C1.54 3.62, 4.49 1.7, 11.39 0 M0 11.39 C2.06 4.7, 3.86 1.46, 11.39 0" stroke="#1e1e1e" stroke-width="2" fill="none"></path></g><g stroke-linecap="round" transform="translate(103.73046894886363 67.64843709091042) rotate(0 22.775390625 70.1875)"><path d="M11.39 0 C20.02 -2.03, 26.21 -0.07, 34.16 0 M11.39 0 C17.4 -0.66, 25.97 0.38, 34.16 0 M34.16 0 C40.55 0.9, 44.31 2.07, 45.55 11.39 M34.16 0 C40.98 0.16, 44.21 5.6, 45.55 11.39 M45.55 11.39 C45.89 54.6, 46.55 102.03, 45.55 128.99 M45.55 11.39 C45.82 52.27, 43.99 90.41, 45.55 128.99 M45.55 128.99 C47 135.74, 41.81 140.5, 34.16 140.38 M45.55 128.99 C44.02 138, 40.74 140.83, 34.16 140.38 M34.16 140.38 C23.84 140.1, 18.24 141.79, 11.39 140.38 M34.16 140.38 C26.08 141.36, 19.82 140.85, 11.39 140.38 M11.39 140.38 C3.3 140.54, -0.11 136.95, 0 128.99 M11.39 140.38 C2.27 141.32, 1.48 136.71, 0 128.99 M0 128.99 C-1.05 92.34, 0.93 61.19, 0 11.39 M0 128.99 C1.38 94.89, 1.16 61.65, 0 11.39 M0 11.39 C0.69 5.5, 5.58 0.78, 11.39 0 M0 11.39 C0.06 5.26, 4.55 0.38, 11.39 0" stroke="#1e1e1e" stroke-width="2" fill="none"></path></g><g stroke-linecap="round"><g stroke-opacity="0.4" fill-opacity="0.4" transform="translate(104.59960957386363 102.22265584090997) rotate(0 22.763671875 0)"><path d="M0 0 C7.59 0, 37.94 0, 45.53 0 M0 0 C7.59 0, 37.94 0, 45.53 0" stroke="#1e1e1e" stroke-width="1" fill="none"></path></g></g><mask></mask><g stroke-linecap="round"><g stroke-opacity="0.4" fill-opacity="0.4" transform="translate(104.52148457386363 134.38281209090997) rotate(0 23.10546875 0)"><path d="M0 0 C7.7 0, 38.51 0, 46.21 0 M0 0 C7.7 0, 38.51 0, 46.21 0" stroke="#1e1e1e" stroke-width="1" fill="none"></path></g></g><mask></mask><g stroke-linecap="round"><g stroke-opacity="0.4" fill-opacity="0.4" transform="translate(105.69726582386363 167.26562459090997) rotate(0 22.54296875 0)"><path d="M0 0 C7.51 0, 37.57 0, 45.09 0 M0 0 C7.51 0, 37.57 0, 45.09 0" stroke="#1e1e1e" stroke-width="1" fill="none"></path></g></g><mask></mask><g stroke-linecap="round" transform="translate(197.70703078977277 67.91406154545598) rotate(0 22.775390625 70.1875)"><path d="M11.39 0 C19.27 -0.46, 28.95 0.17, 34.16 0 M11.39 0 C16.83 0.95, 23.25 0.54, 34.16 0 M34.16 0 C41.79 0.22, 44.58 4.65, 45.55 11.39 M34.16 0 C42.84 -1.21, 44 1.89, 45.55 11.39 M45.55 11.39 C45.43 54.07, 46.06 98.92, 45.55 128.99 M45.55 11.39 C43.83 50.46, 43.55 90.6, 45.55 128.99 M45.55 128.99 C44.98 138.11, 40.34 140.8, 34.16 140.38 M45.55 128.99 C44.09 136.8, 39.88 139.64, 34.16 140.38 M34.16 140.38 C24.54 140.97, 20.06 138.76, 11.39 140.38 M34.16 140.38 C27.04 141.29, 19.16 140.71, 11.39 140.38 M11.39 140.38 C4.79 141.18, 1.81 136.61, 0 128.99 M11.39 140.38 C3.88 138.77, 0.03 136.15, 0 128.99 M0 128.99 C2.71 99.12, 0.58 69.54, 0 11.39 M0 128.99 C-0.63 96.28, -0.76 65.75, 0 11.39 M0 11.39 C0.38 2.61, 5.13 1.3, 11.39 0 M0 11.39 C-0.08 5.29, 1.82 0.42, 11.39 0" stroke="#1e1e1e" stroke-width="2" fill="none"></path></g><g stroke-linecap="round" transform="translate(197.46093703977277 67.64843654545598) rotate(0 22.775390625 70.1875)"><path d="M11.39 0 C19.48 0.3, 26.27 1.12, 34.16 0 M11.39 0 C16.64 0.27, 23.63 -0.09, 34.16 0 M34.16 0 C40.79 0.85, 46.49 2.74, 45.55 11.39 M34.16 0 C40.2 -1.91, 47.14 3.17, 45.55 11.39 M45.55 11.39 C46.5 46.39, 46.48 77.95, 45.55 128.99 M45.55 11.39 C44.09 44.14, 44.63 79.33, 45.55 128.99 M45.55 128.99 C44.14 137.01, 40.49 140.57, 34.16 140.38 M45.55 128.99 C43.68 135.85, 42.58 138.87, 34.16 140.38 M34.16 140.38 C29.86 138.98, 24.04 141.99, 11.39 140.38 M34.16 140.38 C28.61 140.99, 22.22 141, 11.39 140.38 M11.39 140.38 C5.61 140.41, 0.08 135.18, 0 128.99 M11.39 140.38 C3.83 139.95, -1.16 134.35, 0 128.99 M0 128.99 C-1.48 89.94, -1.51 53.14, 0 11.39 M0 128.99 C-0.09 90.71, 0.44 50.95, 0 11.39 M0 11.39 C1.33 5.1, 3.73 1.3, 11.39 0 M0 11.39 C-1.98 4.21, 3.73 1.75, 11.39 0" stroke="#1e1e1e" stroke-width="2" fill="none"></path></g><g stroke-linecap="round"><g stroke-opacity="0.4" fill-opacity="0.4" transform="translate(198.33007766477277 102.22265529545552) rotate(0 22.763671875 0)"><path d="M0 0 C7.59 0, 37.94 0, 45.53 0 M0 0 C7.59 0, 37.94 0, 45.53 0" stroke="#1e1e1e" stroke-width="1" fill="none"></path></g></g><mask></mask><g stroke-linecap="round"><g stroke-opacity="0.4" fill-opacity="0.4" transform="translate(198.25195266477277 134.38281154545552) rotate(0 23.10546875 0)"><path d="M0 0 C7.7 0, 38.51 0, 46.21 0 M0 0 C7.7 0, 38.51 0, 46.21 0" stroke="#1e1e1e" stroke-width="1" fill="none"></path></g></g><mask></mask><g stroke-linecap="round"><g stroke-opacity="0.4" fill-opacity="0.4" transform="translate(199.42773391477277 167.26562404545552) rotate(0 22.54296875 0)"><path d="M0 0 C7.51 0, 37.57 0, 45.09 0 M0 0 C7.51 0, 37.57 0, 45.09 0" stroke="#1e1e1e" stroke-width="1" fill="none"></path></g></g><mask></mask><g stroke-linecap="round" transform="translate(291.43749915340896 67.91406177272847) rotate(0 22.775390625 70.1875)"><path d="M11.39 0 C20.56 1.93, 29.6 1.75, 34.16 0 M11.39 0 C17.65 -0.56, 25.86 -0.39, 34.16 0 M34.16 0 C41.43 0.98, 45.77 5.3, 45.55 11.39 M34.16 0 C41.02 2.12, 43.58 5.01, 45.55 11.39 M45.55 11.39 C45.8 44.56, 45.99 75.99, 45.55 128.99 M45.55 11.39 C45.85 39.32, 47.69 68.14, 45.55 128.99 M45.55 128.99 C46.02 134.66, 43.22 141.01, 34.16 140.38 M45.55 128.99 C47.56 134.81, 41.86 140.08, 34.16 140.38 M34.16 140.38 C28.06 139.55, 25.86 139.82, 11.39 140.38 M34.16 140.38 C28.96 140.65, 22.99 139.71, 11.39 140.38 M11.39 140.38 C4.13 140.21, 0.11 138.28, 0 128.99 M11.39 140.38 C2.14 139.45, 2.19 138.57, 0 128.99 M0 128.99 C-0.37 88.6, -0.73 48.09, 0 11.39 M0 128.99 C-0.53 95.08, 0.2 61.55, 0 11.39 M0 11.39 C-1.69 4.94, 3.72 0.11, 11.39 0 M0 11.39 C-1.24 5.27, 2.45 -0.63, 11.39 0" stroke="#1e1e1e" stroke-width="2" fill="none"></path></g><g stroke-linecap="round" transform="translate(291.19140540340896 67.64843677272847) rotate(0 22.775390625 70.1875)"><path d="M11.39 0 C17.4 1.34, 20.72 1.53, 34.16 0 M11.39 0 C17.1 -0.38, 21.75 0.65, 34.16 0 M34.16 0 C41.97 1.5, 44.91 5.64, 45.55 11.39 M34.16 0 C39.79 1.21, 44.89 4.98, 45.55 11.39 M45.55 11.39 C45.18 43.16, 44.13 75.22, 45.55 128.99 M45.55 11.39 C45.54 53.01, 44.78 92.94, 45.55 128.99 M45.55 128.99 C47.01 137.21, 43.5 138.83, 34.16 140.38 M45.55 128.99 C45.66 136.28, 39.57 140.23, 34.16 140.38 M34.16 140.38 C27.1 139.58, 17.01 139.94, 11.39 140.38 M34.16 140.38 C27.53 139.76, 20.45 140.35, 11.39 140.38 M11.39 140.38 C3.91 142.08, -1.44 135.78, 0 128.99 M11.39 140.38 C5.99 142.37, 0.95 134.64, 0 128.99 M0 128.99 C-0.92 96.89, 0.55 65.6, 0 11.39 M0 128.99 C0.88 84.13, 0.15 39.37, 0 11.39 M0 11.39 C-0.07 3.9, 2.72 1.28, 11.39 0 M0 11.39 C-1.34 3.17, 5.28 1.56, 11.39 0" stroke="#1e1e1e" stroke-width="2" fill="none"></path></g><g stroke-linecap="round"><g stroke-opacity="0.4" fill-opacity="0.4" transform="translate(292.06054602840896 102.22265552272802) rotate(0 22.763671875 0)"><path d="M0 0 C7.59 0, 37.94 0, 45.53 0 M0 0 C7.59 0, 37.94 0, 45.53 0" stroke="#1e1e1e" stroke-width="1" fill="none"></path></g></g><mask></mask><g stroke-linecap="round"><g stroke-opacity="0.4" fill-opacity="0.4" transform="translate(291.98242102840896 134.38281177272802) rotate(0 23.10546875 0)"><path d="M0 0 C7.7 0, 38.51 0, 46.21 0 M0 0 C7.7 0, 38.51 0, 46.21 0" stroke="#1e1e1e" stroke-width="1" fill="none"></path></g></g><mask></mask><g stroke-linecap="round"><g stroke-opacity="0.4" fill-opacity="0.4" transform="translate(293.15820227840896 167.26562427272802) rotate(0 22.54296875 0)"><path d="M0 0 C7.51 0, 37.57 0, 45.09 0 M0 0 C7.51 0, 37.57 0, 45.09 0" stroke="#1e1e1e" stroke-width="1" fill="none"></path></g></g><mask></mask><g transform="translate(10 235.15624945454647) rotate(0 23.15998077392578 10)"><text x="0" y="14.016" font-family="Virgil, Segoe UI Emoji" font-size="16px" fill="#2f9e44" text-anchor="start" style="white-space: pre;" direction="ltr" dominant-baseline="alphabetic">pos=0</text></g><g transform="translate(384.9218727727272 77.51420368181903) rotate(0 20.191993713378906 10)"><text x="0" y="14.016" font-family="Virgil, Segoe UI Emoji" font-size="16px" fill="#2f9e44" text-anchor="start" style="white-space: pre;" direction="ltr" dominant-baseline="alphabetic">i = 0</text></g><g transform="translate(384.9218727727271 109.10333768181908) rotate(0 16.855995178222656 10)"><text x="0" y="14.016" font-family="Virgil, Segoe UI Emoji" font-size="16px" fill="#2f9e44" text-anchor="start" style="white-space: pre;" direction="ltr" dominant-baseline="alphabetic">i = 1</text></g><g transform="translate(384.92187377272734 140.4119319090919) rotate(0 6.575981140136719 10)"><text x="0" y="14.016" font-family="Virgil, Segoe UI Emoji" font-size="16px" fill="#2f9e44" text-anchor="start" style="white-space: pre;" direction="ltr" dominant-baseline="alphabetic">...</text></g><g transform="translate(384.92187377272734 171.72052568181925) rotate(0 46.37596893310547 10)"><text x="0" y="14.016" font-family="Virgil, Segoe UI Emoji" font-size="16px" fill="#2f9e44" text-anchor="start" style="white-space: pre;" direction="ltr" dominant-baseline="alphabetic">i = d_model</text></g><g transform="translate(103.73046900000008 235.15624945454647) rotate(0 19.82398223876953 10)"><text x="0" y="14.016" font-family="Virgil, Segoe UI Emoji" font-size="16px" fill="#2f9e44" text-anchor="start" style="white-space: pre;" direction="ltr" dominant-baseline="alphabetic">pos=1</text></g><g transform="translate(199.7692650000002 235.1562496818192) rotate(0 23.35198211669922 10)"><text x="0" y="14.016" font-family="Virgil, Segoe UI Emoji" font-size="16px" fill="#2f9e44" text-anchor="start" style="white-space: pre;" direction="ltr" dominant-baseline="alphabetic">pos=2</text></g><g transform="translate(293.6606872272732 234.87570990909217) rotate(0 23.103981018066406 10)"><text x="0" y="14.016" font-family="Virgil, Segoe UI Emoji" font-size="16px" fill="#2f9e44" text-anchor="start" style="white-space: pre;" direction="ltr" dominant-baseline="alphabetic">pos=3</text></g></svg>